# Blender v2.82 (sub 7) OBJ File: 'untitled.blend'
# www.blender.org
mtllib ikea_stefan_short.mtl
o Ikea_Stefan_Short_Ikea_Stefan_Short.001
v 0.112000 0.001781 0.011754
v 0.135000 0.001773 0.011761
v 0.135000 0.000000 0.012500
v 0.135000 0.012500 0.009986
v 0.112000 -0.000000 0.012500
v 0.135000 -0.001781 0.011754
v 0.135000 -0.025000 0.020000
v 0.135000 0.002500 0.010016
v 0.112000 0.002500 0.009990
v 0.135000 0.001787 0.008252
v 0.135000 0.025000 0.000000
v 0.135000 0.013521 0.007529
v 0.112000 0.001770 0.008235
v 0.135000 0.000971 0.007697
v 0.112000 0.000000 0.007500
v 0.135000 0.000000 0.007500
v 0.112000 -0.001781 0.008246
v 0.135000 -0.001770 0.008235
v 0.135000 -0.012500 0.010014
v 0.112000 -0.002500 0.010010
v 0.112000 -0.001770 0.011765
v 0.135000 -0.002500 0.009990
v 0.135000 -0.013521 0.012471
v 0.135000 -0.016000 0.006500
v 0.135000 -0.025000 0.000000
v -0.135000 -0.025000 0.000000
v 0.135000 0.018479 0.012471
v 0.135000 0.025000 0.020000
v -0.135000 0.025000 0.000000
v 0.135000 0.018494 0.007545
v 0.135000 0.016000 0.006500
v 0.135000 0.019500 0.010014
v 0.135000 -0.013506 0.007545
v 0.135000 -0.018483 0.007535
v -0.135000 -0.025000 0.020000
v 0.135000 0.016000 0.013500
v 0.079988 -0.011500 0.020000
v 0.135000 0.013506 0.012455
v 0.135000 -0.016000 0.013500
v 0.135000 -0.017359 0.013225
v 0.135000 -0.018502 0.012447
v 0.135000 -0.019500 0.009978
v -0.079988 -0.017500 0.020000
v 0.082105 -0.012363 0.020000
v 0.083000 -0.014500 0.020000
v 0.082118 -0.016625 0.020000
v 0.080012 -0.017500 0.020000
v -0.077000 -0.014500 0.020000
v -0.077882 -0.016625 0.020000
v -0.135000 0.025000 0.020000
v 0.112000 0.016000 0.006500
v 0.112000 0.013506 0.007545
v 0.112000 0.019500 0.009986
v 0.112000 0.018479 0.007529
v 0.112000 0.018494 0.012455
v 0.112000 0.016000 0.013500
v 0.112000 0.012500 0.010014
v 0.112000 0.013521 0.012471
v 0.112000 -0.016000 0.006500
v 0.112000 -0.017359 0.006775
v 0.112000 -0.012500 0.009986
v 0.112000 -0.013521 0.007529
v 0.112000 -0.013506 0.012455
v 0.112000 -0.016000 0.013500
v 0.112000 -0.018483 0.012465
v 0.112000 -0.019500 0.010022
v 0.112000 -0.018502 0.007553
v -0.135000 0.016000 0.006500
v -0.135000 0.018483 0.007535
v -0.135000 -0.018479 0.012471
v -0.135000 0.013506 0.007545
v -0.135000 0.012500 0.010014
v -0.135000 0.000000 0.007500
v -0.135000 -0.001781 0.008246
v -0.135000 -0.002500 0.010010
v -0.135000 -0.013521 0.007529
v -0.135000 -0.018494 0.007545
v -0.135000 -0.016000 0.006500
v -0.135000 -0.019500 0.010014
v -0.082105 -0.016637 0.020000
v -0.135000 -0.016000 0.013500
v 0.077882 -0.012375 0.020000
v 0.077000 -0.014500 0.020000
v -0.077895 -0.012363 0.020000
v -0.083000 -0.014500 0.020000
v -0.082118 -0.012375 0.020000
v -0.080012 -0.011500 0.020000
v -0.135000 0.016000 0.013500
v -0.135000 0.013521 0.012471
v -0.135000 0.002500 0.009990
v -0.135000 0.017359 0.013225
v -0.135000 0.018502 0.012447
v -0.135000 0.019500 0.009978
v -0.135000 0.001781 0.011754
v -0.135000 0.000000 0.012500
v -0.135000 -0.012500 0.009986
v -0.135000 -0.013506 0.012455
v 0.083000 -0.014500 0.007000
v 0.082105 -0.016637 0.007000
v 0.080012 -0.011500 0.007000
v 0.082118 -0.012375 0.007000
v 0.077895 -0.012363 0.007000
v 0.077895 -0.016637 0.020000
v 0.077000 -0.014500 0.007000
v 0.079988 -0.017500 0.007000
v 0.077882 -0.016625 0.007000
v -0.083000 -0.014500 0.007000
v -0.082105 -0.012363 0.007000
v -0.080012 -0.017500 0.007000
v -0.082118 -0.016625 0.007000
v -0.077895 -0.016637 0.007000
v -0.077000 -0.014500 0.007000
v -0.079988 -0.011500 0.007000
v -0.077882 -0.012375 0.007000
v -0.112000 0.016000 0.006500
v -0.112000 0.018494 0.007545
v -0.112000 0.012500 0.009986
v -0.112000 0.013521 0.007529
v -0.112000 0.013506 0.012455
v -0.135000 0.001770 0.008235
v -0.112000 0.016000 0.013500
v -0.112000 0.018479 0.012471
v -0.112000 0.019500 0.010014
v -0.112000 0.000000 0.007500
v -0.112000 0.001781 0.008246
v -0.112000 -0.002500 0.009990
v -0.112000 -0.001770 0.008235
v -0.135000 -0.001770 0.011765
v -0.112000 -0.001781 0.011754
v -0.112000 -0.000000 0.012500
v -0.112000 0.002500 0.010010
v -0.112000 0.001770 0.011765
v -0.112000 -0.016000 0.006500
v -0.112000 -0.013506 0.007545
v -0.112000 -0.019500 0.009986
v -0.112000 -0.018479 0.007529
v -0.112000 -0.018494 0.012455
v -0.112000 -0.016000 0.013500
v -0.112000 -0.012500 0.010014
v -0.112000 -0.013521 0.012471
vt 0.758083 0.329420
vt 0.885394 0.329377
vt 0.885394 0.319561
vt 0.233419 0.296266
vt 0.164228 0.310181
vt 0.174044 0.306090
vt 0.758083 0.319561
vt 0.885394 0.309702
vt 0.025847 0.351695
vt 0.154369 0.306050
vt 0.758083 0.306050
vt 0.885394 0.296431
vt 0.885394 0.306090
vt 0.178066 0.296431
vt 0.758083 0.296288
vt 0.885394 0.286670
vt 0.302609 0.240990
vt 0.174120 0.286670
vt 0.239072 0.282667
vt 0.758083 0.329361
vt 0.885394 0.324935
vt 0.885394 0.329453
vt 0.169602 0.283594
vt 0.758083 0.286574
vt 0.758083 0.319561
vt 0.885394 0.319561
vt 0.164228 0.282505
vt 0.758083 0.309702
vt 0.885394 0.309761
vt 0.095037 0.296419
vt 0.154428 0.286574
vt 0.154369 0.286635
vt 0.164228 0.282505
vt 0.174028 0.286574
vt 0.178066 0.296288
vt 0.150390 0.296397
vt 0.174087 0.306050
vt 0.154428 0.306111
vt 0.164228 0.310181
vt 0.758083 0.309761
vt 0.885394 0.306050
vt 0.758083 0.296397
vt 0.758083 0.306111
vt 0.885394 0.296288
vt 0.758083 0.286635
vt 0.885394 0.286574
vt 0.150390 0.296288
vt 0.089384 0.310018
vt 0.075664 0.276969
vt 0.025847 0.240990
vt 0.008111 0.586644
vt 0.980527 0.883368
vt 0.980527 0.586644
vt 0.266512 0.310018
vt 0.302609 0.351695
vt 0.008111 0.650768
vt 0.980527 0.769458
vt 0.980527 0.650768
vt 0.266594 0.282752
vt 0.252792 0.276969
vt 0.272165 0.296419
vt 0.089467 0.282752
vt 0.008111 0.883368
vt 0.061921 0.282697
vt 0.010634 0.280283
vt 0.990406 0.137864
vt 0.990406 0.280283
vt 0.010634 0.137864
vt 0.252792 0.315716
vt 0.790780 0.157052
vt 0.990406 0.060919
vt 0.990406 0.416967
vt 0.238989 0.309934
vt 0.075664 0.315716
vt 0.068141 0.314192
vt 0.061815 0.309885
vt 0.056291 0.296219
vt 0.210260 0.114327
vt 0.010634 0.060919
vt 0.798460 0.150909
vt 0.801709 0.135689
vt 0.798507 0.120560
vt 0.790866 0.114327
vt 0.221103 0.135689
vt 0.217902 0.120560
vt 0.008111 0.769458
vt 0.010634 0.416967
vt 0.758083 0.408125
vt 0.885394 0.408125
vt 0.885394 0.421927
vt 0.758083 0.394322
vt 0.885394 0.394405
vt 0.758083 0.296266
vt 0.885394 0.282752
vt 0.885394 0.296419
vt 0.758083 0.421845
vt 0.758083 0.282667
vt 0.758083 0.309934
vt 0.885394 0.310018
vt 0.758083 0.421927
vt 0.885394 0.421845
vt 0.885394 0.408125
vt 0.758083 0.408125
vt 0.885394 0.394322
vt 0.758083 0.296419
vt 0.885394 0.309934
vt 0.885394 0.296266
vt 0.758083 0.394405
vt 0.758083 0.310018
vt 0.758083 0.282752
vt 0.885394 0.282667
vt 0.758083 0.230997
vt 0.885394 0.230997
vt 0.885394 0.244800
vt 0.758083 0.223474
vt 0.885394 0.217254
vt 0.758083 0.296266
vt 0.885394 0.282752
vt 0.885394 0.296419
vt 0.758083 0.244717
vt 0.758083 0.282667
vt 0.758083 0.309934
vt 0.885394 0.310018
vt 0.758083 0.244800
vt 0.885394 0.244717
vt 0.885394 0.230997
vt 0.758083 0.230997
vt 0.885394 0.223474
vt 0.758083 0.217254
vt 0.885394 0.217148
vt 0.758083 0.296466
vt 0.885394 0.309885
vt 0.885394 0.296219
vt 0.758083 0.309989
vt 0.758083 0.282801
vt 0.885394 0.282697
vt 0.758083 0.217148
vt 0.856273 0.312757
vt 0.889606 0.288683
vt 0.704421 0.288683
vt 0.865468 0.316590
vt 0.889606 0.362757
vt 0.728574 0.334871
vt 0.704421 0.362757
vt 0.847037 0.316626
vt 0.843310 0.325772
vt 0.797014 0.316461
vt 0.790417 0.319225
vt 0.787755 0.325757
vt 0.746935 0.316570
vt 0.728519 0.316626
vt 0.737754 0.312757
vt 0.724792 0.325772
vt 0.202580 0.120469
vt 0.737754 0.338683
vt 0.783138 0.150818
vt 0.779936 0.135689
vt 0.217854 0.150909
vt 0.199331 0.135689
vt 0.202532 0.150818
vt 0.210174 0.157052
vt 0.856273 0.338683
vt 0.847093 0.334871
vt 0.806273 0.325684
vt 0.861307 0.337663
vt 0.865540 0.334782
vt 0.869236 0.325638
vt 0.803610 0.332216
vt 0.797014 0.334980
vt 0.750717 0.325669
vt 0.746990 0.334814
vt 0.465008 0.187710
vt 0.465008 0.280283
vt 0.472764 0.280283
vt 0.457252 0.187710
vt 0.457298 0.280283
vt 0.790866 0.187710
vt 0.798460 0.280283
vt 0.790780 0.280283
vt 0.472717 0.187710
vt 0.798507 0.187710
vt 0.569306 0.279737
vt 0.580890 0.351695
vt 0.569233 0.351695
vt 0.581021 0.279737
vt 0.095798 0.279737
vt 0.095727 0.351695
vt 0.083967 0.351695
vt 0.783186 0.120469
vt 0.083967 0.279737
vt 0.072136 0.351695
vt 0.580890 0.279737
vt 0.569306 0.351695
vt 0.581021 0.351695
vt 0.072207 0.279737
vt 0.569233 0.279737
vt 0.798460 0.187710
vt 0.790866 0.280283
vt 0.798507 0.280283
vt 0.592605 0.279737
vt 0.458074 0.395219
vt 0.458074 0.443368
vt 0.450158 0.443368
vt 0.751226 0.314609
vt 0.751179 0.362757
vt 0.743310 0.362757
vt 0.743310 0.314609
vt 0.197979 0.395219
vt 0.190228 0.443368
vt 0.198067 0.443368
vt 0.450205 0.395219
vt 0.190179 0.395219
vt 0.205817 0.395219
vt 0.205866 0.443368
vt 0.457252 0.187710
vt 0.457298 0.280283
vt 0.465008 0.280283
vt 0.465008 0.187710
vt 0.472764 0.280283
vt 0.210260 0.187710
vt 0.217854 0.280283
vt 0.210174 0.280283
vt 0.472717 0.187710
vt 0.217902 0.187710
vt 0.202580 0.187710
vt 0.202532 0.280283
vt 0.364740 0.400515
vt 0.279555 0.400515
vt 0.279555 0.391280
vt 0.364740 0.409751
vt 0.279555 0.409711
vt 0.364740 0.325669
vt 0.279555 0.316626
vt 0.279555 0.325772
vt 0.364740 0.391335
vt 0.364740 0.316570
vt 0.364740 0.334814
vt 0.279555 0.334871
vt 0.803571 0.319184
vt 0.364740 0.391280
vt 0.279555 0.391335
vt 0.279555 0.400515
vt 0.364740 0.400515
vt 0.279555 0.405549
vt 0.364740 0.409696
vt 0.279555 0.409782
vt 0.364740 0.325772
vt 0.279555 0.334782
vt 0.279555 0.325638
vt 0.364740 0.334871
vt 0.364740 0.316626
vt 0.279555 0.316590
vt 0.364740 0.341256
vt 0.279555 0.341256
vt 0.279555 0.334659
vt 0.364740 0.347853
vt 0.279555 0.347813
vt 0.364740 0.325684
vt 0.279555 0.319225
vt 0.279555 0.325757
vt 0.364740 0.334699
vt 0.364740 0.319184
vt 0.790456 0.332256
vt 0.364740 0.332216
vt 0.279555 0.332256
vt 0.364740 0.334659
vt 0.279555 0.334699
vt 0.279555 0.341256
vt 0.364740 0.341256
vt 0.279555 0.347853
vt 0.364740 0.325757
vt 0.279555 0.332216
vt 0.279555 0.325684
vt 0.364740 0.347813
vt 0.364740 0.332256
vt 0.364740 0.319225
vt 0.279555 0.319184
vt 0.364740 0.281997
vt 0.279555 0.281997
vt 0.279555 0.272761
vt 0.364740 0.291232
vt 0.279555 0.291177
vt 0.364740 0.325669
vt 0.279555 0.316626
vt 0.279555 0.325772
vt 0.364740 0.272817
vt 0.364740 0.316570
vt 0.364740 0.334814
vt 0.279555 0.334871
vt 0.364740 0.272761
vt 0.279555 0.272817
vt 0.279555 0.281997
vt 0.364740 0.281997
vt 0.279555 0.291232
vt 0.364740 0.325772
vt 0.279555 0.334814
vt 0.279555 0.325669
vt 0.364740 0.291177
vt 0.364740 0.334871
vt 0.364740 0.316626
vt 0.279555 0.316570
vt 0.847037 0.334814
vt 0.856273 0.338683
vt 0.865453 0.334871
vt 0.869236 0.325772
vt 0.843310 0.325669
vt 0.865508 0.316626
vt 0.847093 0.316570
vt 0.856273 0.312757
vt 0.790417 0.332216
vt 0.797014 0.334980
vt 0.803571 0.332256
vt 0.806273 0.325757
vt 0.787755 0.325684
vt 0.803610 0.319225
vt 0.790456 0.319184
vt 0.797014 0.316461
vt 0.728519 0.334814
vt 0.737754 0.338683
vt 0.746935 0.334871
vt 0.750717 0.325772
vt 0.724792 0.325669
vt 0.746990 0.316626
vt 0.728574 0.316570
vt 0.737754 0.312757
vt 0.569306 0.251131
vt 0.564350 0.239300
vt 0.569233 0.227540
vt 0.580890 0.222695
vt 0.581021 0.255905
vt 0.592605 0.227469
vt 0.592677 0.251060
vt 0.597561 0.239300
vt 0.491054 0.279636
vt 0.494370 0.287552
vt 0.491102 0.295421
vt 0.483303 0.298663
vt 0.483215 0.276441
vt 0.475464 0.295468
vt 0.475416 0.279684
vt 0.472148 0.287552
vt 0.266594 0.309934
vt 0.252792 0.315716
vt 0.239072 0.310018
vt 0.233419 0.296419
vt 0.272165 0.296266
vt 0.238989 0.282752
vt 0.266512 0.282667
vt 0.252792 0.276969
vt 0.089467 0.309934
vt 0.075664 0.315716
vt 0.061921 0.309989
vt 0.056291 0.296466
vt 0.095037 0.296266
vt 0.061815 0.282801
vt 0.089384 0.282667
vt 0.068141 0.278494
vt 0.075664 0.276969
vn 0.0002 -0.3847 -0.9230
vn 1.0000 -0.0000 0.0000
vn 0.0000 -0.3864 -0.9223
vn -0.0000 0.3864 -0.9223
vn -0.0002 -0.9232 -0.3844
vn -0.0004 -0.9271 0.3747
vn 0.0004 -0.9260 -0.3774
vn -0.0002 -0.5627 0.8266
vn 0.0004 -0.9234 0.3838
vn 0.0000 -0.1986 0.9801
vn 0.0083 -0.3835 0.9235
vn -0.0000 0.3864 0.9223
vn 0.0003 0.3835 0.9235
vn -0.0003 0.3835 -0.9235
vn 0.0002 0.9234 -0.3838
vn 0.0003 0.9260 0.3774
vn -0.0003 0.9260 -0.3774
vn -0.0002 0.9234 0.3838
vn 0.0000 0.0000 -1.0000
vn 0.0000 1.0000 0.0000
vn 0.0000 -1.0000 0.0000
vn 0.0000 0.0000 1.0000
vn 1.0000 -0.0001 0.0000
vn 0.0000 -0.3864 0.9223
vn 0.0004 0.3835 0.9235
vn -0.0005 -0.9260 0.3774
vn -0.0004 -0.3835 0.9235
vn 0.0003 -0.9234 0.3838
vn -0.0003 -0.9234 -0.3838
vn 0.0005 -0.9260 -0.3774
vn 0.0004 -0.3835 -0.9235
vn -0.0005 0.9260 -0.3774
vn -0.0004 0.3835 -0.9235
vn 0.0003 0.9234 -0.3838
vn -0.0003 0.9234 0.3838
vn 0.0005 0.9260 0.3774
vn -0.0117 0.3847 0.9230
vn 0.0000 0.1986 0.9801
vn 0.0000 0.1986 -0.9801
vn -0.0002 0.5627 -0.8266
vn 0.0117 0.3847 -0.9230
vn -0.0007 0.9271 -0.3747
vn 0.0005 0.9232 -0.3844
vn -0.0005 0.9232 0.3844
vn 0.0007 0.9271 0.3747
vn 0.0002 0.5627 0.8266
vn -1.0000 0.0000 0.0000
vn -1.0000 0.0001 0.0000
vn -0.9223 -0.3864 0.0000
vn -0.9235 0.3835 0.0006
vn -0.9223 0.3864 0.0000
vn -0.3774 -0.9260 -0.0007
vn -0.9235 -0.3835 -0.0006
vn -0.3838 -0.9234 0.0005
vn 0.3838 -0.9234 -0.0005
vn 0.3774 -0.9260 0.0007
vn 0.9235 -0.3835 0.0006
vn 0.9223 0.3864 0.0000
vn 0.9223 -0.3864 0.0000
vn 0.3774 0.9260 -0.0007
vn 0.9235 0.3835 -0.0006
vn 0.3838 0.9234 0.0005
vn -0.3838 0.9234 -0.0005
vn -0.3774 0.9260 0.0007
vn -0.0002 -0.3847 0.9230
vn 0.0000 -0.1986 -0.9801
vn 0.0003 -0.5627 -0.8266
vn -0.0116 -0.3835 -0.9235
vn 0.0006 -0.9271 -0.3747
vn -0.0005 -0.9234 -0.3838
vn 0.0003 -0.9232 0.3844
vn -0.0006 -0.9260 0.3774
vn -0.0003 -0.3835 0.9235
vn 0.0003 -0.9260 -0.3774
vn 0.0003 -0.3835 -0.9235
vn -0.0002 -0.9234 -0.3838
vn 0.0002 -0.9234 0.3838
vn -0.0003 -0.9260 0.3774
usemtl Material.001
s off
f 1/1/1 2/2/1 3/3/1
f 4/4/2 3/5/2 2/6/2
f 5/7/3 1/1/3 3/3/3
f 6/8/4 5/7/4 3/3/4
f 7/9/2 6/10/2 3/5/2
f 4/4/2 7/9/2 3/5/2
f 1/11/5 8/12/5 2/13/5
f 4/4/2 2/6/2 8/14/2
f 9/15/6 10/16/6 8/12/6
f 11/17/2 8/14/2 10/18/2
f 1/11/7 9/15/7 8/12/7
f 12/19/2 8/14/2 11/17/2
f 12/19/2 4/4/2 8/14/2
f 13/20/8 14/21/8 10/22/8
f 11/17/2 10/18/2 14/23/2
f 9/15/9 13/24/9 10/16/9
f 15/25/10 16/26/10 14/21/10
f 11/17/2 14/23/2 16/27/2
f 13/20/11 15/25/11 14/21/11
f 17/28/12 16/26/12 15/25/12
f 18/29/13 16/26/13 17/28/13
f 19/30/2 16/27/2 18/31/2
f 19/30/2 11/17/2 16/27/2
f 17/32/2 15/33/2 13/34/2
f 17/32/2 13/34/2 9/35/2
f 20/36/2 9/35/2 1/37/2
f 17/32/2 9/35/2 20/36/2
f 21/38/2 1/37/2 5/39/2
f 20/36/2 1/37/2 21/38/2
f 6/8/14 21/40/14 5/7/14
f 6/41/15 20/42/15 21/43/15
f 22/44/16 17/45/16 20/42/16
f 6/41/17 22/44/17 20/42/17
f 22/44/18 18/46/18 17/45/18
f 19/30/2 18/31/2 22/47/2
f 7/9/2 22/47/2 6/10/2
f 23/48/2 22/47/2 7/9/2
f 23/48/2 19/30/2 22/47/2
f 24/49/2 25/50/2 11/17/2
f 26/51/19 11/52/19 25/53/19
f 27/54/2 11/17/2 28/55/2
f 29/56/20 28/57/20 11/58/20
f 30/59/2 31/60/2 11/17/2
f 12/19/2 11/17/2 31/60/2
f 32/61/2 30/59/2 11/17/2
f 27/54/2 32/61/2 11/17/2
f 33/62/2 24/49/2 11/17/2
f 19/30/2 33/62/2 11/17/2
f 26/51/19 29/63/19 11/52/19
f 34/64/2 7/9/2 25/50/2
f 35/65/21 25/66/21 7/67/21
f 34/64/2 25/50/2 24/49/2
f 35/65/21 26/68/21 25/66/21
f 36/69/2 28/55/2 7/9/2
f 37/70/22 7/71/22 28/72/22
f 38/73/2 36/69/2 7/9/2
f 4/4/2 38/73/2 7/9/2
f 39/74/2 23/48/2 7/9/2
f 40/75/2 39/74/2 7/9/2
f 41/76/2 40/75/2 7/9/2
f 42/77/2 41/76/2 7/9/2
f 34/64/23 42/77/23 7/9/23
f 43/78/22 35/79/22 7/71/22
f 44/80/22 45/81/22 7/71/22
f 46/82/22 7/71/22 45/81/22
f 37/70/22 44/80/22 7/71/22
f 46/82/22 47/83/22 7/71/22
f 48/84/22 7/71/22 47/83/22
f 49/85/22 43/78/22 7/71/22
f 48/84/22 49/85/22 7/71/22
f 36/69/2 27/54/2 28/55/2
f 50/86/20 28/57/20 29/56/20
f 37/70/22 28/72/22 50/87/22
f 51/88/24 31/89/24 30/90/24
f 52/91/25 12/92/25 31/89/25
f 51/88/12 52/91/12 31/89/12
f 53/93/26 30/94/26 32/95/26
f 54/96/27 51/88/27 30/90/27
f 54/97/28 30/94/28 53/93/28
f 55/98/29 32/95/29 27/99/29
f 53/93/30 32/95/30 55/98/30
f 55/100/31 27/101/31 36/102/31
f 56/103/4 36/102/4 38/104/4
f 55/100/3 36/102/3 56/103/3
f 57/105/32 38/106/32 4/107/32
f 58/108/33 56/103/33 38/104/33
f 57/105/34 58/109/34 38/106/34
f 52/110/35 4/107/35 12/111/35
f 52/110/36 57/105/36 4/107/36
f 59/112/24 24/113/24 33/114/24
f 60/115/37 34/116/37 24/113/37
f 59/112/38 60/115/38 24/113/38
f 61/117/26 33/118/26 19/119/26
f 62/120/27 59/112/27 33/114/27
f 62/121/28 33/118/28 61/117/28
f 63/122/29 19/119/29 23/123/29
f 61/117/30 19/119/30 63/122/30
f 63/124/31 23/125/31 39/126/31
f 64/127/39 39/126/39 40/128/39
f 63/124/3 39/126/3 64/127/3
f 65/129/40 40/128/40 41/130/40
f 65/129/41 64/127/41 40/128/41
f 66/131/42 41/132/42 42/133/42
f 66/131/43 65/134/43 41/132/43
f 67/135/44 42/133/44 34/136/44
f 67/135/45 66/131/45 42/133/45
f 60/115/46 67/137/46 34/116/46
f 68/138/47 29/139/47 26/140/47
f 69/141/47 50/142/47 29/139/47
f 69/141/47 29/139/47 68/138/47
f 70/143/47 26/140/47 35/144/47
f 71/145/47 68/138/47 26/140/47
f 72/146/47 71/145/47 26/140/47
f 73/147/47 72/146/47 26/140/47
f 74/148/47 73/147/47 26/140/47
f 75/149/47 74/148/47 26/140/47
f 76/150/47 75/149/47 26/140/47
f 77/151/47 78/152/47 26/140/47
f 76/150/47 26/140/47 78/152/47
f 79/153/47 77/151/47 26/140/47
f 70/143/47 79/153/47 26/140/47
f 80/154/22 50/87/22 35/79/22
f 81/155/47 35/144/47 50/142/47
f 82/156/22 37/70/22 50/87/22
f 83/157/22 82/156/22 50/87/22
f 84/158/22 83/157/22 50/87/22
f 80/154/22 85/159/22 50/87/22
f 86/160/22 50/87/22 85/159/22
f 87/161/22 84/158/22 50/87/22
f 86/160/22 87/161/22 50/87/22
f 88/162/47 89/163/47 50/142/47
f 90/164/47 50/142/47 89/163/47
f 91/165/47 88/162/47 50/142/47
f 92/166/47 91/165/47 50/142/47
f 93/167/47 92/166/47 50/142/47
f 69/141/48 93/167/48 50/142/48
f 94/168/47 95/169/47 50/142/47
f 96/170/47 50/142/47 95/169/47
f 90/164/47 94/168/47 50/142/47
f 97/171/47 81/155/47 50/142/47
f 96/170/47 97/171/47 50/142/47
f 43/78/22 80/154/22 35/79/22
f 81/155/47 70/143/47 35/144/47
f 98/172/49 45/173/49 44/174/49
f 99/175/50 46/176/50 45/173/50
f 98/172/51 99/175/51 45/173/51
f 100/177/52 44/178/52 37/179/52
f 101/180/53 98/172/53 44/174/53
f 101/181/54 44/178/54 100/177/54
f 102/182/55 37/183/55 82/184/55
f 100/185/56 37/183/56 102/182/56
f 102/186/57 82/187/57 83/188/57
f 48/84/22 103/189/22 83/157/22
f 104/190/58 83/188/58 103/191/58
f 84/158/22 48/84/22 83/157/22
f 102/186/59 83/188/59 104/190/59
f 48/84/22 47/83/22 103/189/22
f 105/192/60 103/193/60 47/194/60
f 106/195/61 104/190/61 103/191/61
f 105/192/62 106/196/62 103/193/62
f 99/197/63 47/198/63 46/199/63
f 99/200/64 105/192/64 47/194/64
f 107/201/58 85/202/58 80/203/58
f 108/204/57 86/205/57 85/206/57
f 107/207/59 108/204/59 85/206/59
f 109/208/60 80/209/60 43/210/60
f 110/211/61 107/201/61 80/203/61
f 109/208/62 110/212/62 80/209/62
f 111/213/63 43/210/63 49/214/63
f 111/213/64 109/208/64 43/210/64
f 111/215/50 49/216/50 48/217/50
f 112/218/49 48/217/49 84/219/49
f 111/215/51 48/217/51 112/218/51
f 113/220/52 84/221/52 87/222/52
f 114/223/53 112/218/53 84/219/53
f 113/220/54 114/224/54 84/221/54
f 108/225/55 87/222/55 86/226/55
f 108/225/56 113/220/56 87/222/56
f 115/227/12 68/228/12 71/229/12
f 116/230/65 69/231/65 68/228/65
f 115/227/24 116/230/24 68/228/24
f 117/232/36 71/233/36 72/234/36
f 118/235/25 115/227/25 71/229/25
f 117/232/35 118/236/35 71/233/35
f 90/164/47 89/163/47 72/146/47
f 119/237/34 72/234/34 89/238/34
f 120/239/47 72/146/47 73/147/47
f 120/239/47 90/164/47 72/146/47
f 119/237/32 117/232/32 72/234/32
f 119/240/33 89/241/33 88/242/33
f 121/243/66 88/242/66 91/244/66
f 119/240/4 88/242/4 121/243/4
f 122/245/67 91/244/67 92/246/67
f 122/245/68 121/243/68 91/244/68
f 123/247/69 92/248/69 93/249/69
f 123/247/70 122/250/70 92/248/70
f 116/251/71 93/249/71 69/252/71
f 116/251/72 123/247/72 93/249/72
f 124/253/12 73/254/12 74/255/12
f 125/256/73 120/257/73 73/254/73
f 124/253/24 125/256/24 73/254/24
f 126/258/16 74/259/16 75/260/16
f 127/261/13 124/253/13 74/255/13
f 126/258/18 127/262/18 74/259/18
f 96/170/47 128/263/47 75/149/47
f 129/264/15 75/260/15 128/265/15
f 76/150/47 96/170/47 75/149/47
f 129/264/17 126/258/17 75/260/17
f 96/170/47 95/169/47 128/263/47
f 129/266/14 128/267/14 95/268/14
f 130/269/3 95/268/3 94/270/3
f 129/266/4 95/268/4 130/269/4
f 131/271/74 94/272/74 90/273/74
f 132/274/75 130/269/75 94/270/75
f 131/271/76 132/275/76 94/272/76
f 125/276/77 90/273/77 120/277/77
f 125/276/78 131/271/78 90/273/78
f 133/278/12 78/279/12 77/280/12
f 134/281/27 76/282/27 78/279/27
f 133/278/24 134/281/24 78/279/24
f 135/283/36 77/284/36 79/285/36
f 136/286/25 133/278/25 77/280/25
f 135/283/35 136/287/35 77/284/35
f 137/288/34 79/285/34 70/289/34
f 137/288/32 135/283/32 79/285/32
f 137/290/33 70/291/33 81/292/33
f 138/293/3 81/292/3 97/294/3
f 137/290/4 81/292/4 138/293/4
f 139/295/30 97/296/30 96/297/30
f 140/298/31 138/293/31 97/294/31
f 139/295/29 140/299/29 97/296/29
f 134/300/28 96/297/28 76/301/28
f 134/300/26 139/295/26 96/297/26
f 119/302/47 121/303/47 122/304/47
f 119/302/47 122/304/47 123/305/47
f 117/306/47 123/305/47 116/307/47
f 119/302/47 123/305/47 117/306/47
f 118/308/47 116/307/47 115/309/47
f 117/306/47 116/307/47 118/308/47
f 129/310/47 130/311/47 132/312/47
f 129/310/47 132/312/47 131/313/47
f 126/314/47 131/313/47 125/315/47
f 129/310/47 131/313/47 126/314/47
f 127/316/47 125/315/47 124/317/47
f 126/314/47 125/315/47 127/316/47
f 137/318/47 138/319/47 140/320/47
f 137/318/47 140/320/47 139/321/47
f 135/322/47 139/321/47 134/323/47
f 137/318/47 139/321/47 135/322/47
f 136/324/47 134/323/47 133/325/47
f 135/322/47 134/323/47 136/324/47
f 102/326/22 104/327/22 106/328/22
f 102/326/22 106/328/22 105/329/22
f 100/330/22 105/329/22 99/331/22
f 100/330/22 102/326/22 105/329/22
f 101/332/22 99/331/22 98/333/22
f 101/332/22 100/330/22 99/331/22
f 111/334/22 112/335/22 114/336/22
f 111/334/22 114/336/22 113/337/22
f 109/338/22 113/337/22 108/339/22
f 111/334/22 113/337/22 109/338/22
f 110/340/22 108/339/22 107/341/22
f 109/338/22 108/339/22 110/340/22
f 55/342/2 56/343/2 58/344/2
f 55/342/2 58/344/2 57/345/2
f 53/346/2 57/345/2 52/347/2
f 53/346/2 55/342/2 57/345/2
f 54/348/2 52/347/2 51/349/2
f 54/348/2 53/346/2 52/347/2
f 63/350/2 64/351/2 65/352/2
f 63/350/2 65/352/2 66/353/2
f 61/354/2 66/353/2 67/355/2
f 61/354/2 63/350/2 66/353/2
f 62/356/2 67/355/2 60/357/2
f 62/356/2 61/354/2 67/355/2
f 62/356/2 60/357/2 59/358/2
