# Blender v2.82 (sub 7) OBJ File: 'untitled.blend'
# www.blender.org
mtllib ikea_stefan_short.mtl
o Ikea_Stefan_Short
v 0.112000 0.001781 0.011754
v 0.135000 0.001773 0.011761
v 0.135000 0.000000 0.012500
v 0.135000 0.012500 0.009986
v 0.112000 -0.000000 0.012500
v 0.135000 -0.001781 0.011754
v 0.135000 -0.025000 0.020000
v 0.135000 0.002500 0.010016
v 0.112000 0.002500 0.009990
v 0.135000 0.001787 0.008252
v 0.135000 0.025000 0.000000
v 0.135000 0.013521 0.007529
v 0.112000 0.001770 0.008235
v 0.135000 0.000971 0.007697
v 0.112000 0.000000 0.007500
v 0.135000 0.000000 0.007500
v 0.112000 -0.001781 0.008246
v 0.135000 -0.001770 0.008235
v 0.135000 -0.012500 0.010014
v 0.112000 -0.002500 0.010010
v 0.112000 -0.001770 0.011765
v 0.135000 -0.002500 0.009990
v 0.135000 -0.013521 0.012471
v 0.135000 -0.016000 0.006500
v 0.135000 -0.025000 0.000000
v -0.135000 -0.025000 0.000000
v 0.135000 0.018479 0.012471
v 0.135000 0.025000 0.020000
v -0.135000 0.025000 0.000000
v 0.135000 0.018494 0.007545
v 0.135000 0.016000 0.006500
v 0.135000 0.019500 0.010014
v 0.135000 -0.013506 0.007545
v 0.135000 -0.018483 0.007535
v -0.135000 -0.025000 0.020000
v 0.135000 0.016000 0.013500
v 0.079988 -0.011500 0.020000
v 0.135000 0.013506 0.012455
v 0.135000 -0.016000 0.013500
v 0.135000 -0.017359 0.013225
v 0.135000 -0.018502 0.012447
v 0.135000 -0.019500 0.009978
v -0.079988 -0.017500 0.020000
v 0.082105 -0.012363 0.020000
v 0.083000 -0.014500 0.020000
v 0.082118 -0.016625 0.020000
v 0.080012 -0.017500 0.020000
v -0.077000 -0.014500 0.020000
v -0.077882 -0.016625 0.020000
v -0.135000 0.025000 0.020000
v 0.112000 0.016000 0.006500
v 0.112000 0.013506 0.007545
v 0.112000 0.019500 0.009986
v 0.112000 0.018479 0.007529
v 0.112000 0.018494 0.012455
v 0.112000 0.016000 0.013500
v 0.112000 0.012500 0.010014
v 0.112000 0.013521 0.012471
v 0.112000 -0.016000 0.006500
v 0.112000 -0.017359 0.006775
v 0.112000 -0.012500 0.009986
v 0.112000 -0.013521 0.007529
v 0.112000 -0.013506 0.012455
v 0.112000 -0.016000 0.013500
v 0.112000 -0.018483 0.012465
v 0.112000 -0.019500 0.010022
v 0.112000 -0.018502 0.007553
v -0.135000 0.016000 0.006500
v -0.135000 0.018483 0.007535
v -0.135000 -0.018479 0.012471
v -0.135000 0.013506 0.007545
v -0.135000 0.012500 0.010014
v -0.135000 0.000000 0.007500
v -0.135000 -0.001781 0.008246
v -0.135000 -0.002500 0.010010
v -0.135000 -0.013521 0.007529
v -0.135000 -0.018494 0.007545
v -0.135000 -0.016000 0.006500
v -0.135000 -0.019500 0.010014
v -0.082105 -0.016637 0.020000
v -0.135000 -0.016000 0.013500
v 0.077882 -0.012375 0.020000
v 0.077000 -0.014500 0.020000
v -0.077895 -0.012363 0.020000
v -0.083000 -0.014500 0.020000
v -0.082118 -0.012375 0.020000
v -0.080012 -0.011500 0.020000
v -0.135000 0.016000 0.013500
v -0.135000 0.013521 0.012471
v -0.135000 0.002500 0.009990
v -0.135000 0.017359 0.013225
v -0.135000 0.018502 0.012447
v -0.135000 0.019500 0.009978
v -0.135000 0.001781 0.011754
v -0.135000 0.000000 0.012500
v -0.135000 -0.012500 0.009986
v -0.135000 -0.013506 0.012455
v 0.083000 -0.014500 0.007000
v 0.082105 -0.016637 0.007000
v 0.080012 -0.011500 0.007000
v 0.082118 -0.012375 0.007000
v 0.077895 -0.012363 0.007000
v 0.077895 -0.016637 0.020000
v 0.077000 -0.014500 0.007000
v 0.079988 -0.017500 0.007000
v 0.077882 -0.016625 0.007000
v -0.083000 -0.014500 0.007000
v -0.082105 -0.012363 0.007000
v -0.080012 -0.017500 0.007000
v -0.082118 -0.016625 0.007000
v -0.077895 -0.016637 0.007000
v -0.077000 -0.014500 0.007000
v -0.079988 -0.011500 0.007000
v -0.077882 -0.012375 0.007000
v -0.112000 0.016000 0.006500
v -0.112000 0.018494 0.007545
v -0.112000 0.012500 0.009986
v -0.112000 0.013521 0.007529
v -0.112000 0.013506 0.012455
v -0.135000 0.001770 0.008235
v -0.112000 0.016000 0.013500
v -0.112000 0.018479 0.012471
v -0.112000 0.019500 0.010014
v -0.112000 0.000000 0.007500
v -0.112000 0.001781 0.008246
v -0.112000 -0.002500 0.009990
v -0.112000 -0.001770 0.008235
v -0.135000 -0.001770 0.011765
v -0.112000 -0.001781 0.011754
v -0.112000 -0.000000 0.012500
v -0.112000 0.002500 0.010010
v -0.112000 0.001770 0.011765
v -0.112000 -0.016000 0.006500
v -0.112000 -0.013506 0.007545
v -0.112000 -0.019500 0.009986
v -0.112000 -0.018479 0.007529
v -0.112000 -0.018494 0.012455
v -0.112000 -0.016000 0.013500
v -0.112000 -0.012500 0.010014
v -0.112000 -0.013521 0.012471
vt 0.455568 0.036943
vt 0.540753 0.036943
vt 0.540755 0.047086
vt 0.138889 0.142022
vt 0.092593 0.156400
vt 0.099161 0.152172
vt 0.455570 0.047130
vt 0.540757 0.057273
vt 0.000000 0.199294
vt 0.085996 0.152132
vt 0.625950 0.094419
vt 0.540767 0.104399
vt 0.540765 0.094419
vt 0.101852 0.142192
vt 0.625952 0.104506
vt 0.540769 0.114485
vt 0.185185 0.084908
vt 0.099212 0.132107
vt 0.142672 0.127971
vt 0.370376 0.057238
vt 0.455560 0.052604
vt 0.455561 0.057273
vt 0.096188 0.128928
vt 0.625954 0.114543
vt 0.370373 0.047112
vt 0.455558 0.047052
vt 0.092593 0.127803
vt 0.370370 0.036926
vt 0.455555 0.036926
vt 0.046296 0.142180
vt 0.086035 0.132008
vt 0.117922 0.036611
vt 0.110770 0.036611
vt 0.105774 0.028820
vt 0.105793 0.017951
vt 0.122901 0.028896
vt 0.110773 0.010236
vt 0.122921 0.018027
vt 0.117925 0.010236
vt 0.455572 0.057256
vt 0.085204 0.056735
vt 0.170386 0.046698
vt 0.170389 0.056735
vt 0.085200 0.046648
vt 0.170382 0.036611
vt 0.085197 0.036611
vt 0.083333 0.142045
vt 0.042514 0.156232
vt 0.033333 0.122084
vt 0.000000 0.084908
vt 1.000000 0.564786
vt 0.000000 0.850752
vt 0.000000 0.564786
vt 0.161032 0.156232
vt 0.185185 0.199294
vt 1.000000 0.654373
vt 0.000000 0.768759
vt 0.000000 0.654372
vt 0.161087 0.128058
vt 0.151852 0.122084
vt 0.164814 0.142180
vt 0.042569 0.128059
vt 1.000000 0.850752
vt 0.024138 0.128002
vt 0.000000 0.428067
vt 1.000000 0.313681
vt 1.000000 0.428067
vt 0.000000 0.313681
vt 0.151852 0.162119
vt 0.208528 0.328679
vt 0.008069 0.404644
vt 0.008069 0.123293
vt 0.142616 0.156144
vt 0.033333 0.162119
vt 0.028300 0.160544
vt 0.024066 0.156094
vt 0.020371 0.141974
vt 0.791472 0.362441
vt 0.991931 0.404644
vt 0.200816 0.333533
vt 0.197553 0.345560
vt 0.200768 0.357515
vt 0.208442 0.362441
vt 0.780583 0.345560
vt 0.783798 0.357515
vt 1.000000 0.768759
vt 0.991931 0.123292
vt 0.455574 0.099708
vt 0.540759 0.099622
vt 0.540765 0.113884
vt 0.455568 0.085446
vt 0.540753 0.085446
vt 0.340783 0.070857
vt 0.255604 0.084908
vt 0.255598 0.070786
vt 0.455579 0.113884
vt 0.340789 0.084908
vt 0.340777 0.056735
vt 0.255592 0.056735
vt 0.370370 0.113884
vt 0.455556 0.113884
vt 0.455562 0.128060
vt 0.370376 0.128145
vt 0.455568 0.142322
vt 0.455561 0.071395
vt 0.370382 0.085446
vt 0.370376 0.071324
vt 0.370382 0.142322
vt 0.455568 0.085446
vt 0.455555 0.057273
vt 0.370370 0.057273
vt 0.540759 0.184984
vt 0.455574 0.185070
vt 0.455568 0.170808
vt 0.540762 0.192758
vt 0.455580 0.199269
vt 0.455574 0.071324
vt 0.540753 0.057273
vt 0.540759 0.071395
vt 0.540753 0.170808
vt 0.455568 0.057273
vt 0.455580 0.085446
vt 0.540765 0.085446
vt 0.455568 0.142322
vt 0.540753 0.142322
vt 0.540759 0.156498
vt 0.455573 0.156583
vt 0.540762 0.164271
vt 0.455579 0.170783
vt 0.540765 0.170808
vt 0.540772 0.128515
vt 0.625950 0.114543
vt 0.625957 0.128663
vt 0.540765 0.114543
vt 0.540780 0.142635
vt 0.625965 0.142635
vt 0.540765 0.199294
vt 0.218518 0.122084
vt 0.185185 0.084908
vt 0.370370 0.084908
vt 0.209323 0.128002
vt 0.185185 0.199294
vt 0.346217 0.156232
vt 0.370370 0.199294
vt 0.227754 0.128058
vt 0.231481 0.142180
vt 0.277778 0.127803
vt 0.284374 0.132071
vt 0.287037 0.142158
vt 0.327857 0.127971
vt 0.346272 0.128058
vt 0.337037 0.122084
vt 0.350000 0.142180
vt 0.799184 0.357587
vt 0.337037 0.162119
vt 0.216202 0.333605
vt 0.219417 0.345560
vt 0.783846 0.333533
vt 0.802447 0.345560
vt 0.799232 0.333605
vt 0.791558 0.328679
vt 0.218518 0.162119
vt 0.227699 0.156232
vt 0.268519 0.142045
vt 0.213485 0.160544
vt 0.209252 0.156094
vt 0.205556 0.141974
vt 0.271181 0.152132
vt 0.277778 0.156400
vt 0.324074 0.142022
vt 0.327802 0.156144
vt 0.540772 0.033518
vt 0.588921 0.033445
vt 0.588928 0.045669
vt 0.540765 0.021294
vt 0.588913 0.021294
vt 0.503724 0.024899
vt 0.455583 0.036943
vt 0.455575 0.024839
vt 0.540780 0.045669
vt 0.503731 0.036943
vt 0.503716 0.012795
vt 0.455568 0.012795
vt 0.588928 0.094419
vt 0.540780 0.094419
vt 0.540772 0.082268
vt 0.216154 0.357587
vt 0.588921 0.082195
vt 0.540765 0.070044
vt 0.588936 0.033791
vt 0.637077 0.021747
vt 0.637084 0.033852
vt 0.588913 0.070044
vt 0.588928 0.021747
vt 0.588944 0.045895
vt 0.637092 0.045896
vt 0.588936 0.082268
vt 0.637084 0.082195
vt 0.637092 0.094419
vt 0.588928 0.070044
vt 0.637077 0.070044
vt 0.637084 0.058000
vt 0.588944 0.070044
vt 0.588936 0.057940
vt 0.588944 0.094419
vt 0.637092 0.070044
vt 0.637077 0.045896
vt 0.588928 0.045896
vt 0.540765 0.045669
vt 0.588913 0.045669
vt 0.588921 0.057820
vt 0.540772 0.057893
vt 0.588928 0.070044
vt 0.455554 0.024882
vt 0.407413 0.036926
vt 0.407405 0.024821
vt 0.540780 0.070044
vt 0.455562 0.036926
vt 0.455546 0.012777
vt 0.407398 0.012777
vt 0.370375 0.156608
vt 0.455560 0.156547
vt 0.455564 0.170808
vt 0.370370 0.142347
vt 0.455555 0.142347
vt 0.000006 0.070786
vt 0.085185 0.056735
vt 0.085191 0.070857
vt 0.370379 0.170785
vt 0.000000 0.056735
vt 0.000012 0.084908
vt 0.085197 0.084908
vt 0.271220 0.132008
vt 0.370370 0.170808
vt 0.455556 0.170808
vt 0.455562 0.184984
vt 0.370376 0.185070
vt 0.455565 0.192758
vt 0.370382 0.199246
vt 0.455568 0.199294
vt 0.625954 0.156757
vt 0.540773 0.170727
vt 0.540769 0.156607
vt 0.625958 0.170808
vt 0.625950 0.142635
vt 0.540765 0.142635
vt 0.340780 0.046548
vt 0.255595 0.046609
vt 0.255592 0.036422
vt 0.340783 0.056735
vt 0.255598 0.056735
vt 0.625953 0.180895
vt 0.540771 0.190932
vt 0.540768 0.180845
vt 0.340777 0.036422
vt 0.625956 0.190932
vt 0.284335 0.152194
vt 0.625950 0.170808
vt 0.540765 0.170808
vt 0.170395 0.036422
vt 0.255580 0.036422
vt 0.255583 0.046548
vt 0.170398 0.046609
vt 0.255586 0.056735
vt 0.085188 0.046698
vt 0.000006 0.056735
vt 0.000003 0.046648
vt 0.170401 0.056735
vt 0.085191 0.056735
vt 0.085185 0.036611
vt 0.000000 0.036611
vt 0.455562 0.099622
vt 0.370376 0.099708
vt 0.370370 0.085446
vt 0.455568 0.113884
vt 0.370382 0.113884
vt 0.170401 0.070786
vt 0.255580 0.056735
vt 0.255586 0.070857
vt 0.455556 0.085446
vt 0.170395 0.056735
vt 0.170407 0.084908
vt 0.255592 0.084908
vt 0.455568 0.113884
vt 0.540753 0.113884
vt 0.540759 0.128060
vt 0.455573 0.128145
vt 0.540765 0.142322
vt 0.170389 0.070857
vt 0.085209 0.084908
vt 0.085203 0.070786
vt 0.455579 0.142322
vt 0.170395 0.084908
vt 0.170382 0.056735
vt 0.085197 0.056735
vt 0.520739 0.036943
vt 0.510725 0.036943
vt 0.503731 0.026036
vt 0.503759 0.010819
vt 0.527710 0.026143
vt 0.510730 0.000018
vt 0.527737 0.010926
vt 0.520743 0.000018
vt 0.127920 0.010236
vt 0.135072 0.010236
vt 0.140068 0.018027
vt 0.140049 0.028896
vt 0.122940 0.017951
vt 0.135069 0.036611
vt 0.122921 0.028820
vt 0.127917 0.036611
vt 0.400399 0.036926
vt 0.390386 0.036926
vt 0.383391 0.026018
vt 0.383419 0.010801
vt 0.407370 0.026125
vt 0.390390 0.000000
vt 0.407398 0.010908
vt 0.400403 0.000000
vt 0.099775 0.036611
vt 0.091192 0.036611
vt 0.085197 0.027262
vt 0.085221 0.014219
vt 0.105751 0.027353
vt 0.091196 0.004961
vt 0.105774 0.014310
vt 0.099779 0.004961
vt 0.070620 0.004961
vt 0.079202 0.004961
vt 0.085197 0.014310
vt 0.085174 0.027353
vt 0.064644 0.014219
vt 0.079198 0.036611
vt 0.064621 0.027262
vt 0.070616 0.036611
vt 0.363327 0.047934
vt 0.353314 0.047934
vt 0.346320 0.037027
vt 0.346347 0.021810
vt 0.370299 0.037133
vt 0.353319 0.011009
vt 0.370326 0.021917
vt 0.363332 0.011009
vt 0.370370 0.073920
vt 0.363325 0.084908
vt 0.353363 0.084889
vt 0.346414 0.074216
vt 0.370305 0.058671
vt 0.346320 0.058987
vt 0.363322 0.047934
vt 0.349124 0.052370
vt 0.353382 0.047934
vn 0.0002 -0.3847 -0.9230
vn 1.0000 -0.0000 0.0000
vn 0.0000 -0.3864 -0.9223
vn -0.0000 0.3864 -0.9223
vn -0.0002 -0.9232 -0.3844
vn -0.0004 -0.9271 0.3747
vn 0.0004 -0.9260 -0.3774
vn -0.0002 -0.5627 0.8266
vn 0.0004 -0.9234 0.3838
vn 0.0000 -0.1986 0.9801
vn 0.0083 -0.3835 0.9235
vn -0.0000 0.3864 0.9223
vn 0.0003 0.3835 0.9235
vn -0.0003 0.3835 -0.9235
vn 0.0002 0.9234 -0.3838
vn 0.0003 0.9260 0.3774
vn -0.0003 0.9260 -0.3774
vn -0.0002 0.9234 0.3838
vn 0.0000 0.0000 -1.0000
vn 0.0000 1.0000 0.0000
vn 0.0000 -1.0000 0.0000
vn 0.0000 0.0000 1.0000
vn 1.0000 -0.0001 0.0000
vn 0.0000 -0.3864 0.9223
vn 0.0004 0.3835 0.9235
vn -0.0005 -0.9260 0.3774
vn -0.0004 -0.3835 0.9235
vn 0.0003 -0.9234 0.3838
vn -0.0003 -0.9234 -0.3838
vn 0.0005 -0.9260 -0.3774
vn 0.0004 -0.3835 -0.9235
vn -0.0005 0.9260 -0.3774
vn -0.0004 0.3835 -0.9235
vn 0.0003 0.9234 -0.3838
vn -0.0003 0.9234 0.3838
vn 0.0005 0.9260 0.3774
vn -0.0117 0.3847 0.9230
vn 0.0000 0.1986 0.9801
vn 0.0000 0.1986 -0.9801
vn -0.0002 0.5627 -0.8266
vn 0.0117 0.3847 -0.9230
vn -0.0007 0.9271 -0.3747
vn 0.0005 0.9232 -0.3844
vn -0.0005 0.9232 0.3844
vn 0.0007 0.9271 0.3747
vn 0.0002 0.5627 0.8266
vn -1.0000 0.0000 0.0000
vn -1.0000 0.0001 0.0000
vn -0.9223 -0.3864 0.0000
vn -0.9235 0.3835 0.0006
vn -0.9223 0.3864 0.0000
vn -0.3774 -0.9260 -0.0007
vn -0.9235 -0.3835 -0.0006
vn -0.3838 -0.9234 0.0005
vn 0.3838 -0.9234 -0.0005
vn 0.3774 -0.9260 0.0007
vn 0.9235 -0.3835 0.0006
vn 0.9223 0.3864 0.0000
vn 0.9223 -0.3864 0.0000
vn 0.3774 0.9260 -0.0007
vn 0.9235 0.3835 -0.0006
vn 0.3838 0.9234 0.0005
vn -0.3838 0.9234 -0.0005
vn -0.3774 0.9260 0.0007
vn -0.0002 -0.3847 0.9230
vn 0.0000 -0.1986 -0.9801
vn 0.0003 -0.5627 -0.8266
vn -0.0116 -0.3835 -0.9235
vn 0.0006 -0.9271 -0.3747
vn -0.0005 -0.9234 -0.3838
vn 0.0003 -0.9232 0.3844
vn -0.0006 -0.9260 0.3774
vn -0.0003 -0.3835 0.9235
vn 0.0003 -0.9260 -0.3774
vn 0.0003 -0.3835 -0.9235
vn -0.0002 -0.9234 -0.3838
vn 0.0002 -0.9234 0.3838
vn -0.0003 -0.9260 0.3774
usemtl Material.006
s off
f 1/1/1 2/2/1 3/3/1
f 4/4/2 3/5/2 2/6/2
f 5/7/3 1/1/3 3/3/3
f 6/8/4 5/7/4 3/3/4
f 7/9/2 6/10/2 3/5/2
f 4/4/2 7/9/2 3/5/2
f 1/11/5 8/12/5 2/13/5
f 4/4/2 2/6/2 8/14/2
f 9/15/6 10/16/6 8/12/6
f 11/17/2 8/14/2 10/18/2
f 1/11/7 9/15/7 8/12/7
f 12/19/2 8/14/2 11/17/2
f 12/19/2 4/4/2 8/14/2
f 13/20/8 14/21/8 10/22/8
f 11/17/2 10/18/2 14/23/2
f 9/15/9 13/24/9 10/16/9
f 15/25/10 16/26/10 14/21/10
f 11/17/2 14/23/2 16/27/2
f 13/20/11 15/25/11 14/21/11
f 17/28/12 16/26/12 15/25/12
f 18/29/13 16/26/13 17/28/13
f 19/30/2 16/27/2 18/31/2
f 19/30/2 11/17/2 16/27/2
f 17/32/2 15/33/2 13/34/2
f 17/32/2 13/34/2 9/35/2
f 20/36/2 9/35/2 1/37/2
f 17/32/2 9/35/2 20/36/2
f 21/38/2 1/37/2 5/39/2
f 20/36/2 1/37/2 21/38/2
f 6/8/14 21/40/14 5/7/14
f 6/41/15 20/42/15 21/43/15
f 22/44/16 17/45/16 20/42/16
f 6/41/17 22/44/17 20/42/17
f 22/44/18 18/46/18 17/45/18
f 19/30/2 18/31/2 22/47/2
f 7/9/2 22/47/2 6/10/2
f 23/48/2 22/47/2 7/9/2
f 23/48/2 19/30/2 22/47/2
f 24/49/2 25/50/2 11/17/2
f 26/51/19 11/52/19 25/53/19
f 27/54/2 11/17/2 28/55/2
f 29/56/20 28/57/20 11/58/20
f 30/59/2 31/60/2 11/17/2
f 12/19/2 11/17/2 31/60/2
f 32/61/2 30/59/2 11/17/2
f 27/54/2 32/61/2 11/17/2
f 33/62/2 24/49/2 11/17/2
f 19/30/2 33/62/2 11/17/2
f 26/51/19 29/63/19 11/52/19
f 34/64/2 7/9/2 25/50/2
f 35/65/21 25/66/21 7/67/21
f 34/64/2 25/50/2 24/49/2
f 35/65/21 26/68/21 25/66/21
f 36/69/2 28/55/2 7/9/2
f 37/70/22 7/71/22 28/72/22
f 38/73/2 36/69/2 7/9/2
f 4/4/2 38/73/2 7/9/2
f 39/74/2 23/48/2 7/9/2
f 40/75/2 39/74/2 7/9/2
f 41/76/2 40/75/2 7/9/2
f 42/77/2 41/76/2 7/9/2
f 34/64/23 42/77/23 7/9/23
f 43/78/22 35/79/22 7/71/22
f 44/80/22 45/81/22 7/71/22
f 46/82/22 7/71/22 45/81/22
f 37/70/22 44/80/22 7/71/22
f 46/82/22 47/83/22 7/71/22
f 48/84/22 7/71/22 47/83/22
f 49/85/22 43/78/22 7/71/22
f 48/84/22 49/85/22 7/71/22
f 36/69/2 27/54/2 28/55/2
f 50/86/20 28/57/20 29/56/20
f 37/70/22 28/72/22 50/87/22
f 51/88/24 31/89/24 30/90/24
f 52/91/25 12/92/25 31/89/25
f 51/88/12 52/91/12 31/89/12
f 53/93/26 30/94/26 32/95/26
f 54/96/27 51/88/27 30/90/27
f 54/97/28 30/94/28 53/93/28
f 55/98/29 32/95/29 27/99/29
f 53/93/30 32/95/30 55/98/30
f 55/100/31 27/101/31 36/102/31
f 56/103/4 36/102/4 38/104/4
f 55/100/3 36/102/3 56/103/3
f 57/105/32 38/106/32 4/107/32
f 58/108/33 56/103/33 38/104/33
f 57/105/34 58/109/34 38/106/34
f 52/110/35 4/107/35 12/111/35
f 52/110/36 57/105/36 4/107/36
f 59/112/24 24/113/24 33/114/24
f 60/115/37 34/116/37 24/113/37
f 59/112/38 60/115/38 24/113/38
f 61/117/26 33/118/26 19/119/26
f 62/120/27 59/112/27 33/114/27
f 62/121/28 33/118/28 61/117/28
f 63/122/29 19/119/29 23/123/29
f 61/117/30 19/119/30 63/122/30
f 63/124/31 23/125/31 39/126/31
f 64/127/39 39/126/39 40/128/39
f 63/124/3 39/126/3 64/127/3
f 65/129/40 40/128/40 41/130/40
f 65/129/41 64/127/41 40/128/41
f 66/131/42 41/132/42 42/133/42
f 66/131/43 65/134/43 41/132/43
f 67/135/44 42/133/44 34/136/44
f 67/135/45 66/131/45 42/133/45
f 60/115/46 67/137/46 34/116/46
f 68/138/47 29/139/47 26/140/47
f 69/141/47 50/142/47 29/139/47
f 69/141/47 29/139/47 68/138/47
f 70/143/47 26/140/47 35/144/47
f 71/145/47 68/138/47 26/140/47
f 72/146/47 71/145/47 26/140/47
f 73/147/47 72/146/47 26/140/47
f 74/148/47 73/147/47 26/140/47
f 75/149/47 74/148/47 26/140/47
f 76/150/47 75/149/47 26/140/47
f 77/151/47 78/152/47 26/140/47
f 76/150/47 26/140/47 78/152/47
f 79/153/47 77/151/47 26/140/47
f 70/143/47 79/153/47 26/140/47
f 80/154/22 50/87/22 35/79/22
f 81/155/47 35/144/47 50/142/47
f 82/156/22 37/70/22 50/87/22
f 83/157/22 82/156/22 50/87/22
f 84/158/22 83/157/22 50/87/22
f 80/154/22 85/159/22 50/87/22
f 86/160/22 50/87/22 85/159/22
f 87/161/22 84/158/22 50/87/22
f 86/160/22 87/161/22 50/87/22
f 88/162/47 89/163/47 50/142/47
f 90/164/47 50/142/47 89/163/47
f 91/165/47 88/162/47 50/142/47
f 92/166/47 91/165/47 50/142/47
f 93/167/47 92/166/47 50/142/47
f 69/141/48 93/167/48 50/142/48
f 94/168/47 95/169/47 50/142/47
f 96/170/47 50/142/47 95/169/47
f 90/164/47 94/168/47 50/142/47
f 97/171/47 81/155/47 50/142/47
f 96/170/47 97/171/47 50/142/47
f 43/78/22 80/154/22 35/79/22
f 81/155/47 70/143/47 35/144/47
f 98/172/49 45/173/49 44/174/49
f 99/175/50 46/176/50 45/173/50
f 98/172/51 99/175/51 45/173/51
f 100/177/52 44/178/52 37/179/52
f 101/180/53 98/172/53 44/174/53
f 101/181/54 44/178/54 100/177/54
f 102/182/55 37/179/55 82/183/55
f 100/177/56 37/179/56 102/182/56
f 102/184/57 82/185/57 83/186/57
f 48/84/22 103/187/22 83/157/22
f 104/188/58 83/186/58 103/189/58
f 84/158/22 48/84/22 83/157/22
f 102/184/59 83/186/59 104/188/59
f 48/84/22 47/83/22 103/187/22
f 105/190/60 103/191/60 47/192/60
f 106/193/61 104/188/61 103/189/61
f 105/190/62 106/194/62 103/191/62
f 99/195/63 47/192/63 46/196/63
f 99/195/64 105/190/64 47/192/64
f 107/197/58 85/198/58 80/199/58
f 108/200/57 86/201/57 85/198/57
f 107/197/59 108/200/59 85/198/59
f 109/202/60 80/203/60 43/204/60
f 110/205/61 107/197/61 80/199/61
f 109/202/62 110/206/62 80/203/62
f 111/207/63 43/204/63 49/208/63
f 111/207/64 109/202/64 43/204/64
f 111/209/50 49/210/50 48/211/50
f 112/212/49 48/211/49 84/213/49
f 111/209/51 48/211/51 112/212/51
f 113/214/52 84/215/52 87/216/52
f 114/217/53 112/212/53 84/213/53
f 113/214/54 114/218/54 84/215/54
f 108/219/55 87/216/55 86/220/55
f 108/219/56 113/214/56 87/216/56
f 115/221/12 68/222/12 71/223/12
f 116/224/65 69/225/65 68/222/65
f 115/221/24 116/224/24 68/222/24
f 117/226/36 71/227/36 72/228/36
f 118/229/25 115/221/25 71/223/25
f 117/226/35 118/230/35 71/227/35
f 90/164/47 89/163/47 72/146/47
f 119/231/34 72/228/34 89/232/34
f 120/233/47 72/146/47 73/147/47
f 120/233/47 90/164/47 72/146/47
f 119/231/32 117/226/32 72/228/32
f 119/234/33 89/235/33 88/236/33
f 121/237/66 88/236/66 91/238/66
f 119/234/4 88/236/4 121/237/4
f 122/239/67 91/238/67 92/240/67
f 122/239/68 121/237/68 91/238/68
f 123/241/69 92/242/69 93/243/69
f 123/241/70 122/244/70 92/242/70
f 116/245/71 93/243/71 69/246/71
f 116/245/72 123/241/72 93/243/72
f 124/247/12 73/248/12 74/249/12
f 125/250/73 120/251/73 73/248/73
f 124/247/24 125/250/24 73/248/24
f 126/252/16 74/253/16 75/254/16
f 127/255/13 124/247/13 74/249/13
f 126/252/18 127/256/18 74/253/18
f 96/170/47 128/257/47 75/149/47
f 129/258/15 75/254/15 128/259/15
f 76/150/47 96/170/47 75/149/47
f 129/258/17 126/252/17 75/254/17
f 96/170/47 95/169/47 128/257/47
f 129/260/14 128/261/14 95/262/14
f 130/263/3 95/262/3 94/264/3
f 129/260/4 95/262/4 130/263/4
f 131/265/74 94/266/74 90/267/74
f 132/268/75 130/263/75 94/264/75
f 131/265/76 132/269/76 94/266/76
f 125/270/77 90/267/77 120/271/77
f 125/270/78 131/265/78 90/267/78
f 133/272/12 78/273/12 77/274/12
f 134/275/27 76/276/27 78/273/27
f 133/272/24 134/275/24 78/273/24
f 135/277/36 77/278/36 79/279/36
f 136/280/25 133/272/25 77/274/25
f 135/277/35 136/281/35 77/278/35
f 137/282/34 79/279/34 70/283/34
f 137/282/32 135/277/32 79/279/32
f 137/284/33 70/285/33 81/286/33
f 138/287/3 81/286/3 97/288/3
f 137/284/4 81/286/4 138/287/4
f 139/289/30 97/290/30 96/291/30
f 140/292/31 138/287/31 97/288/31
f 139/289/29 140/293/29 97/290/29
f 134/294/28 96/291/28 76/295/28
f 134/294/26 139/289/26 96/291/26
f 119/296/47 121/297/47 122/298/47
f 119/296/47 122/298/47 123/299/47
f 117/300/47 123/299/47 116/301/47
f 119/296/47 123/299/47 117/300/47
f 118/302/47 116/301/47 115/303/47
f 117/300/47 116/301/47 118/302/47
f 129/304/47 130/305/47 132/306/47
f 129/304/47 132/306/47 131/307/47
f 126/308/47 131/307/47 125/309/47
f 129/304/47 131/307/47 126/308/47
f 127/310/47 125/309/47 124/311/47
f 126/308/47 125/309/47 127/310/47
f 137/312/47 138/313/47 140/314/47
f 137/312/47 140/314/47 139/315/47
f 135/316/47 139/315/47 134/317/47
f 137/312/47 139/315/47 135/316/47
f 136/318/47 134/317/47 133/319/47
f 135/316/47 134/317/47 136/318/47
f 102/320/22 104/321/22 106/322/22
f 102/320/22 106/322/22 105/323/22
f 100/324/22 105/323/22 99/325/22
f 100/324/22 102/320/22 105/323/22
f 101/326/22 99/325/22 98/327/22
f 101/326/22 100/324/22 99/325/22
f 111/328/22 112/329/22 114/330/22
f 111/328/22 114/330/22 113/331/22
f 109/332/22 113/331/22 108/333/22
f 111/328/22 113/331/22 109/332/22
f 110/334/22 108/333/22 107/335/22
f 109/332/22 108/333/22 110/334/22
f 55/336/2 56/337/2 58/338/2
f 55/336/2 58/338/2 57/339/2
f 53/340/2 57/339/2 52/341/2
f 53/340/2 55/336/2 57/339/2
f 54/342/2 52/341/2 51/343/2
f 54/342/2 53/340/2 52/341/2
f 63/344/2 64/345/2 65/346/2
f 63/344/2 65/346/2 66/347/2
f 61/348/2 66/347/2 67/349/2
f 61/348/2 63/344/2 66/347/2
f 62/350/2 67/349/2 60/351/2
f 62/350/2 61/348/2 67/349/2
f 62/350/2 60/351/2 59/352/2
