# Blender v2.82 (sub 7) OBJ File: 'untitled.blend'
# www.blender.org
mtllib ikea_stefan_bottom.mtl
o Ikea_Stefan_Bottom
v -0.134000 0.170000 0.010000
v -0.134000 0.170000 0.000000
v -0.171000 0.170000 0.000000
v -0.207706 -0.205000 0.000000
v -0.171000 0.170000 0.010000
v -0.217625 -0.193729 0.000000
v -0.214777 -0.202071 0.000000
v -0.134000 0.205000 0.010000
v -0.134000 0.205000 0.000000
v 0.134000 0.205000 0.000000
v 0.207706 -0.205000 0.010000
v -0.217625 -0.193729 0.010000
v -0.207706 -0.205000 0.010000
v 0.134000 0.170000 0.000000
v 0.171000 0.170000 0.000000
v 0.171000 0.170000 0.010000
v 0.207706 -0.205000 0.000000
v 0.217625 -0.193729 0.000000
v 0.217625 -0.193729 0.010000
v 0.134000 0.170000 0.010000
v 0.134000 0.205000 0.010000
v -0.217706 -0.195000 0.000000
v -0.217686 -0.194363 0.000000
v -0.217686 -0.194363 0.010000
v -0.217706 -0.195000 0.010000
v -0.214777 -0.202071 0.010000
v 0.214777 -0.202071 0.000000
v 0.217686 -0.194363 0.000000
v 0.217706 -0.195000 0.000000
v 0.214777 -0.202071 0.010000
v 0.217706 -0.195000 0.010000
v 0.217686 -0.194363 0.010000
vt 0.048193 0.540070
vt 0.060241 0.540070
vt 0.060241 0.585964
vt 0.874549 0.535454
vt 0.833660 0.941215
vt 0.792444 0.941215
vt 0.048193 0.585964
vt 0.012048 0.550507
vt 0.024096 1.000000
vt 0.012048 1.000000
vt 0.882426 0.538623
vt 0.885598 0.547650
vt 0.084337 0.583468
vt 0.072289 0.540070
vt 0.084337 0.540070
vt 0.792444 0.979086
vt 0.493904 0.979086
vt 0.072289 0.583468
vt 0.707082 0.468492
vt 0.315895 0.101519
vt 0.315895 0.061783
vt 0.279384 0.101519
vt 0.024096 0.550507
vt 0.707082 0.022362
vt 0.695324 0.011710
vt 0.493904 0.941215
vt 0.452688 0.941215
vt 0.036145 0.540070
vt 0.048193 0.540070
vt 0.048193 0.585964
vt 0.411799 0.535454
vt 0.400750 0.547650
vt 0.000000 0.550507
vt 0.012048 0.550507
vt 0.012048 1.000000
vt 0.000000 1.000000
vt 0.060241 0.540070
vt 0.072289 0.540070
vt 0.072289 0.583468
vt 0.036145 0.585964
vt 0.036145 0.872488
vt 0.024097 0.872488
vt 0.024096 0.540070
vt 0.060241 0.583468
vt 0.036145 0.540070
vt 0.885688 0.546274
vt 0.885666 0.546964
vt 0.012048 0.549722
vt 0.024096 0.549722
vt 0.012048 0.548933
vt 0.024096 0.548933
vt 0.012048 0.540070
vt 0.657476 0.653404
vt 0.667908 0.653404
vt 0.667908 0.660998
vt 0.024096 0.540071
vt 0.374807 0.786409
vt 0.374807 0.775978
vt 0.820937 0.775978
vt 0.657476 0.660998
vt 0.403922 0.538624
vt 0.727999 0.652366
vt 0.738431 0.652366
vt 0.738431 0.659960
vt 0.820937 0.786409
vt 0.400682 0.546964
vt 0.400660 0.546275
vt 0.000000 0.540070
vt 0.012048 0.540071
vt 0.012048 0.548933
vt 0.727999 0.659960
vt 0.000000 0.548933
vt 0.012048 0.549722
vt 0.000000 0.549722
vt 0.704027 0.476086
vt 0.695324 0.479144
vt 0.315895 0.429072
vt 0.696651 0.479232
vt 0.695986 0.479210
vt 0.315894 0.389336
vt 0.704027 0.014768
vt 0.695986 0.011645
vt 0.696651 0.011623
vt 0.279384 0.389336
vn 0.0000 1.0000 0.0000
vn 0.0000 0.0000 -1.0000
vn -0.9919 0.1271 0.0000
vn -1.0000 0.0000 0.0000
vn 0.0000 0.0000 1.0000
vn 0.9919 0.1271 0.0000
vn 1.0000 0.0000 0.0000
vn -0.9954 0.0955 0.0000
vn -0.9995 0.0319 0.0000
vn -0.9954 0.0954 0.0000
vn -0.9239 -0.3827 0.0000
vn -0.3827 -0.9239 0.0000
vn 0.0000 -1.0000 0.0000
vn 0.3827 -0.9239 0.0000
vn 0.9239 -0.3827 0.0000
vn 0.9995 0.0319 0.0000
vn 0.9954 0.0954 0.0000
vn 0.9954 0.0955 0.0000
usemtl Material.001
s off
f 1/1/1 2/2/1 3/3/1
f 4/4/2 3/5/2 2/6/2
f 5/7/1 1/1/1 3/3/1
f 6/8/3 5/9/3 3/10/3
f 7/11/2 6/12/2 3/5/2
f 4/4/2 7/11/2 3/5/2
f 8/13/4 2/14/4 1/15/4
f 9/16/2 10/17/2 2/6/2
f 4/4/2 2/6/2 10/17/2
f 8/13/4 9/18/4 2/14/4
f 11/19/5 1/20/5 5/21/5
f 8/22/5 1/20/5 11/19/5
f 12/23/3 5/9/3 6/8/3
f 13/24/5 11/19/5 5/21/5
f 12/25/5 13/24/5 5/21/5
f 4/4/2 14/26/2 15/27/2
f 16/28/1 15/29/1 14/30/1
f 17/31/2 4/4/2 15/27/2
f 18/32/2 17/31/2 15/27/2
f 19/33/6 18/34/6 15/35/6
f 16/36/6 19/33/6 15/35/6
f 4/4/2 10/17/2 14/26/2
f 20/37/7 14/38/7 10/39/7
f 20/40/1 16/28/1 14/30/1
f 21/41/1 10/42/1 9/43/1
f 20/37/7 10/39/7 21/44/7
f 21/41/1 9/43/1 8/45/1
f 22/46/2 23/47/2 6/12/2
f 12/23/8 6/8/8 23/48/8
f 7/11/2 22/46/2 6/12/2
f 24/49/9 23/48/9 22/50/9
f 12/23/10 23/48/10 24/49/10
f 25/51/11 22/50/11 7/52/11
f 24/49/9 22/50/9 25/51/9
f 26/53/12 7/54/12 4/55/12
f 25/51/11 7/52/11 26/56/11
f 13/57/13 4/58/13 17/59/13
f 26/53/12 4/55/12 13/60/12
f 18/32/2 27/61/2 17/31/2
f 11/62/14 17/63/14 27/64/14
f 13/57/13 17/59/13 11/65/13
f 28/66/2 29/67/2 27/61/2
f 30/68/15 27/69/15 29/70/15
f 18/32/2 28/66/2 27/61/2
f 30/71/14 11/62/14 27/64/14
f 31/72/16 29/70/16 28/73/16
f 30/68/15 29/70/15 31/72/15
f 32/74/17 28/73/17 18/34/17
f 31/72/16 28/73/16 32/74/16
f 32/74/18 18/34/18 19/33/18
f 30/75/5 19/76/5 16/77/5
f 31/78/5 32/79/5 19/76/5
f 30/75/5 31/78/5 19/76/5
f 20/80/5 11/19/5 16/77/5
f 30/75/5 16/77/5 11/19/5
f 20/80/5 8/22/5 11/19/5
f 12/25/5 26/81/5 13/24/5
f 24/82/5 25/83/5 26/81/5
f 12/25/5 24/82/5 26/81/5
f 20/80/5 21/84/5 8/22/5
