# Blender v2.82 (sub 7) OBJ File: 'untitled.blend'
# www.blender.org
mtllib ikea_stefan_long.mtl
o Ikea_Stefan_Long.001
v 0.170000 0.025000 0.020000
v 0.170000 0.025000 0.000000
v -0.170000 0.025000 0.000000
v -0.170000 -0.025000 0.000000
v -0.170000 0.025000 0.020000
v -0.170000 0.018833 0.007176
v -0.170000 0.016000 0.006000
v 0.170000 0.018833 0.012824
v 0.170000 -0.025000 0.000000
v 0.170000 -0.016000 0.006000
v 0.170000 0.018850 0.007194
v 0.170000 0.016000 0.006000
v 0.170000 0.013167 0.007176
v 0.170000 0.020000 0.010016
v 0.170000 0.002499 0.010010
v 0.170000 0.001778 0.008243
v 0.170000 0.000000 0.007500
v 0.170000 -0.012000 0.010016
v 0.170000 -0.013150 0.007194
v 0.111988 -0.011501 0.020000
v 0.170000 0.016000 0.014000
v 0.170000 -0.025000 0.020000
v -0.170000 -0.016000 0.014000
v -0.170000 -0.025000 0.020000
v -0.114105 -0.016638 0.020000
v -0.170000 0.016000 0.014000
v -0.170000 0.013167 0.012824
v -0.170000 0.002499 0.009990
v -0.170000 0.018850 0.012806
v -0.170000 0.020000 0.009984
v -0.170000 0.001778 0.011757
v -0.170000 0.000000 0.012500
v -0.170000 -0.012000 0.009984
v -0.170000 -0.013150 0.012806
v 0.109882 -0.012375 0.020000
v 0.109000 -0.014500 0.020000
v -0.109895 -0.012362 0.020000
v -0.115000 -0.014500 0.020000
v -0.114118 -0.012375 0.020000
v -0.112012 -0.011501 0.020000
v -0.170000 -0.018833 0.012824
v -0.170000 0.013150 0.007194
v -0.170000 0.012000 0.010016
v -0.170000 0.000000 0.007500
v -0.170000 -0.001778 0.008243
v -0.170000 -0.002499 0.010010
v -0.170000 -0.013167 0.007176
v -0.170000 -0.018850 0.007194
v -0.170000 -0.016000 0.006000
v -0.170000 -0.020000 0.010016
v 0.170000 -0.018826 0.007170
v 0.170000 0.013150 0.012806
v 0.170000 0.012000 0.009984
v 0.170000 0.000000 0.012500
v 0.170000 -0.001778 0.011757
v 0.170000 -0.002499 0.009990
v 0.170000 -0.013167 0.012824
v 0.170000 -0.016000 0.014000
v 0.170000 -0.018843 0.012811
v 0.170000 -0.020000 0.009971
v -0.111988 -0.017499 0.020000
v 0.114105 -0.012362 0.020000
v 0.115000 -0.014500 0.020000
v 0.114118 -0.016625 0.020000
v 0.112012 -0.017499 0.020000
v -0.109000 -0.014500 0.020000
v -0.109882 -0.016625 0.020000
v 0.147000 0.016000 0.006000
v 0.147000 0.013150 0.007194
v 0.147000 0.020000 0.009984
v 0.147000 0.018833 0.007176
v 0.147000 0.018850 0.012806
v 0.147000 0.016000 0.014000
v 0.147000 0.012000 0.010016
v 0.147000 0.013167 0.012824
v 0.170000 0.001767 0.011768
v 0.147000 0.000000 0.007500
v 0.170000 -0.001767 0.008232
v 0.147000 -0.001778 0.008243
v 0.147000 0.002499 0.009990
v 0.147000 0.001767 0.008232
v 0.147000 0.001778 0.011757
v 0.147000 -0.000000 0.012500
v 0.147000 -0.002499 0.010010
v 0.147000 -0.001767 0.011768
v 0.147000 -0.016000 0.006000
v 0.147000 -0.018850 0.007194
v 0.147000 -0.012000 0.009984
v 0.147000 -0.013167 0.007176
v 0.147000 -0.013150 0.012806
v 0.147000 -0.016000 0.014000
v 0.147000 -0.020000 0.010016
v 0.147000 -0.018833 0.012824
v -0.147000 0.016000 0.006000
v -0.147000 0.018843 0.007189
v -0.147000 0.012000 0.009984
v -0.147000 0.013167 0.007176
v -0.147000 0.013150 0.012806
v -0.170000 0.001767 0.008232
v -0.147000 0.016000 0.014000
v -0.147000 0.020000 0.010029
v -0.147000 0.018826 0.012830
v -0.147000 0.000000 0.007500
v -0.147000 0.001778 0.008243
v -0.147000 -0.002499 0.009990
v -0.147000 -0.001767 0.008232
v -0.170000 -0.001767 0.011768
v -0.147000 -0.001778 0.011757
v -0.147000 -0.000000 0.012500
v -0.147000 0.002499 0.010010
v -0.147000 0.001767 0.011768
v -0.147000 -0.016000 0.006000
v -0.147000 -0.013150 0.007194
v -0.147000 -0.020000 0.009971
v -0.147000 -0.018826 0.007170
v -0.147000 -0.018843 0.012811
v -0.147000 -0.016000 0.014000
v -0.147000 -0.012000 0.010016
v -0.147000 -0.013167 0.012824
v 0.115000 -0.014500 0.007000
v 0.114105 -0.016638 0.007000
v 0.112012 -0.011501 0.007000
v 0.114118 -0.012375 0.007000
v 0.109895 -0.012362 0.007000
v 0.109895 -0.016638 0.020000
v 0.109000 -0.014500 0.007000
v 0.111988 -0.017499 0.007000
v 0.109882 -0.016625 0.007000
v -0.115000 -0.014500 0.007000
v -0.114105 -0.012362 0.007000
v -0.112012 -0.017499 0.007000
v -0.114118 -0.016625 0.007000
v -0.109895 -0.016638 0.007000
v -0.109000 -0.014500 0.007000
v -0.111988 -0.011501 0.007000
v -0.109882 -0.012375 0.007000
vt 0.044786 0.798429
vt 0.044786 0.693527
vt 0.961415 0.693527
vt 0.959426 0.627627
vt 0.959426 0.892293
vt 0.034373 0.892293
vt 0.961415 0.798429
vt 0.128867 0.157830
vt 0.146998 0.084451
vt 0.146998 0.198895
vt 0.120539 0.164561
vt 0.000000 0.198895
vt 0.275865 0.157830
vt 0.293997 0.084451
vt 0.293997 0.198895
vt 0.034373 0.627627
vt 0.173458 0.118784
vt 0.146998 0.084451
vt 0.275915 0.125616
vt 0.267537 0.118784
vt 0.259209 0.125516
vt 0.279297 0.141763
vt 0.227845 0.141731
vt 0.225724 0.131616
vt 0.220498 0.127367
vt 0.185218 0.141763
vt 0.181836 0.125616
vt 0.203143 0.372512
vt 0.051388 0.186743
vt 0.940799 0.186742
vt 0.267537 0.164561
vt 0.146998 0.198894
vt 0.051388 0.441211
vt 0.026460 0.118784
vt 0.000000 0.084451
vt 0.794582 0.398651
vt 0.940799 0.441211
vt 0.120539 0.118784
vt 0.112211 0.125516
vt 0.080846 0.141731
vt 0.128917 0.125616
vt 0.132298 0.141763
vt 0.078726 0.131616
vt 0.073499 0.127367
vt 0.038219 0.141763
vt 0.034838 0.125616
vt 0.208651 0.376958
vt 0.210959 0.387773
vt 0.783570 0.376894
vt 0.796924 0.387772
vt 0.794616 0.376958
vt 0.789108 0.372512
vt 0.000000 0.427782
vt 0.000000 0.313338
vt 1.000000 0.313338
vt 0.018131 0.125516
vt 0.112160 0.157730
vt 0.108779 0.141582
vt 0.073499 0.155978
vt 0.068272 0.151729
vt 0.066152 0.141614
vt 0.034788 0.157830
vt 0.018081 0.157730
vt 0.026460 0.164562
vt 0.014700 0.141582
vt 0.165149 0.125478
vt 1.000000 0.427782
vt 0.259159 0.157730
vt 0.255777 0.141582
vt 0.220498 0.155978
vt 0.215271 0.151729
vt 0.213151 0.141614
vt 0.181786 0.157830
vt 0.173458 0.164561
vt 0.165099 0.157759
vt 0.161699 0.141504
vt 0.789045 0.403033
vt 0.197605 0.376894
vt 0.195264 0.387773
vt 0.197572 0.398587
vt 0.203080 0.403033
vt 0.781228 0.387772
vt 0.783536 0.398587
vt 0.429309 0.150071
vt 0.361662 0.150169
vt 0.361656 0.133861
vt 0.429316 0.166378
vt 0.361669 0.166378
vt 0.429317 0.117108
vt 0.496958 0.101042
vt 0.496964 0.117189
vt 0.429303 0.133861
vt 0.429311 0.101042
vt 0.429324 0.133256
vt 0.496971 0.133256
vt 0.361656 0.198894
vt 0.294009 0.198895
vt 0.294003 0.182685
vt 0.361650 0.182587
vt 0.293997 0.166378
vt 0.361663 0.052680
vt 0.429303 0.036614
vt 0.429310 0.052760
vt 0.361644 0.166378
vt 0.361656 0.036614
vt 0.361669 0.068828
vt 0.429316 0.068828
vt 0.225693 0.151792
vt 0.496965 0.143973
vt 0.429318 0.144035
vt 0.429316 0.133861
vt 0.215303 0.131554
vt 0.496968 0.154146
vt 0.429321 0.154146
vt 0.000002 0.042055
vt 0.067647 0.031995
vt 0.067650 0.042109
vt 0.496963 0.133861
vt 0.000000 0.031995
vt 0.000005 0.052170
vt 0.067652 0.052170
vt 0.270620 0.052237
vt 0.202973 0.052237
vt 0.202971 0.042126
vt 0.270618 0.042064
vt 0.202968 0.031952
vt 0.135314 0.042055
vt 0.202962 0.042109
vt 0.270615 0.031952
vt 0.135312 0.031995
vt 0.135317 0.052170
vt 0.202964 0.052170
vt 0.361650 0.117555
vt 0.294003 0.117652
vt 0.293997 0.101345
vt 0.361656 0.133861
vt 0.294009 0.133824
vt 0.294003 0.052680
vt 0.361644 0.036614
vt 0.361650 0.052761
vt 0.361644 0.101345
vt 0.293997 0.036614
vt 0.294009 0.068828
vt 0.361657 0.068828
vt 0.429311 0.133861
vt 0.361664 0.133824
vt 0.361660 0.117615
vt 0.429307 0.117554
vt 0.361656 0.101345
vt 0.000004 0.068236
vt 0.067647 0.052170
vt 0.067651 0.068423
vt 0.429303 0.101345
vt 0.000000 0.052170
vt 0.000009 0.084384
vt 0.067656 0.084451
vt 0.294001 0.085099
vt 0.361648 0.085038
vt 0.361652 0.101345
vt 0.293997 0.068828
vt 0.361644 0.068828
vt 0.496964 0.084974
vt 0.429324 0.101042
vt 0.429317 0.084894
vt 0.294004 0.101308
vt 0.496971 0.101042
vt 0.496958 0.068828
vt 0.429311 0.068828
vt 0.078694 0.151792
vt 0.293997 0.133861
vt 0.361644 0.133861
vt 0.361650 0.150071
vt 0.294003 0.150168
vt 0.361656 0.166378
vt 0.202964 0.068424
vt 0.135321 0.084384
vt 0.135316 0.068236
vt 0.294009 0.166341
vt 0.202968 0.084451
vt 0.202959 0.052170
vt 0.135312 0.052170
vt 0.429318 0.188783
vt 0.496965 0.188722
vt 0.496968 0.198895
vt 0.429316 0.178610
vt 0.496963 0.178610
vt 0.293999 0.026501
vt 0.361644 0.016439
vt 0.361646 0.026555
vt 0.429321 0.198895
vt 0.293997 0.016439
vt 0.068304 0.131554
vt 0.294002 0.036614
vt 0.361649 0.036614
vt 0.429316 0.158325
vt 0.496963 0.158325
vt 0.496965 0.168437
vt 0.429318 0.168499
vt 0.496968 0.178610
vt 0.135306 0.042109
vt 0.067661 0.052170
vt 0.067658 0.042055
vt 0.429321 0.178610
vt 0.135308 0.052170
vt 0.135303 0.031995
vt 0.067656 0.031995
vt 0.361662 0.182685
vt 0.429309 0.182588
vt 0.429316 0.198895
vt 0.361656 0.166378
vt 0.429303 0.166378
vt 0.135307 0.068423
vt 0.067665 0.084384
vt 0.067660 0.068236
vt 0.361669 0.198857
vt 0.135312 0.084451
vt 0.135303 0.052170
vt 0.067656 0.052170
vt 0.361656 0.068828
vt 0.429303 0.068828
vt 0.429307 0.085038
vt 0.361660 0.085098
vt 0.429311 0.101345
vt 0.270621 0.068384
vt 0.202981 0.084451
vt 0.202974 0.068303
vt 0.361664 0.101308
vt 0.270628 0.084451
vt 0.270615 0.052237
vt 0.202968 0.052237
vt 0.438145 0.024241
vt 0.399909 0.024311
vt 0.399904 0.012232
vt 0.438151 0.036614
vt 0.399915 0.036610
vt 0.067658 0.019882
vt 0.105887 0.007832
vt 0.105893 0.019945
vt 0.438139 0.012232
vt 0.067652 0.007832
vt 0.067664 0.031995
vt 0.105900 0.031995
vt 0.438151 0.012232
vt 0.476386 0.012232
vt 0.476392 0.024241
vt 0.208618 0.398651
vt 0.438157 0.024311
vt 0.476398 0.036614
vt 0.000006 0.019881
vt 0.038235 0.007832
vt 0.038242 0.019945
vt 0.438163 0.036610
vt 0.000000 0.007832
vt 0.000012 0.031995
vt 0.038248 0.031995
vt 0.438157 0.048694
vt 0.476392 0.048624
vt 0.476398 0.060997
vt 0.438151 0.036614
vt 0.476386 0.036614
vt 0.164727 0.019881
vt 0.202956 0.007832
vt 0.202962 0.019945
vt 0.438163 0.060993
vt 0.164721 0.007832
vt 0.164733 0.031995
vt 0.202968 0.031995
vt 0.399904 0.036614
vt 0.361668 0.036610
vt 0.361662 0.024311
vt 0.399898 0.024241
vt 0.361657 0.012232
vt 0.144141 0.019945
vt 0.105912 0.031995
vt 0.105906 0.019882
vt 0.399892 0.012232
vt 0.144147 0.031995
vt 0.144135 0.007832
vt 0.105900 0.007832
vt 0.501733 0.133256
vt 0.508549 0.101587
vt 0.513312 0.110941
vt 0.496971 0.123903
vt 0.501733 0.101587
vt 0.508549 0.133256
vt 0.513290 0.123986
vt 0.496993 0.110858
vt 0.508549 0.068828
vt 0.501733 0.100497
vt 0.496971 0.091144
vt 0.513312 0.078182
vt 0.508549 0.100497
vt 0.501733 0.068828
vt 0.496993 0.078099
vt 0.513290 0.091227
vt 0.503318 0.136382
vt 0.512403 0.136378
vt 0.518737 0.148798
vt 0.518737 0.166173
vt 0.496993 0.148734
vt 0.512374 0.178610
vt 0.496968 0.166133
vt 0.503313 0.178602
vt 0.058019 0.031995
vt 0.063688 0.005596
vt 0.067652 0.013355
vt 0.054055 0.024235
vt 0.058023 0.005596
vt 0.063683 0.031995
vt 0.067644 0.024253
vt 0.054063 0.013338
vt 0.287621 0.042232
vt 0.278560 0.042223
vt 0.272215 0.029754
vt 0.272240 0.012356
vt 0.293985 0.029795
vt 0.278566 0.000004
vt 0.293985 0.012420
vt 0.287650 0.000000
vt 0.482752 0.018778
vt 0.491836 0.018778
vt 0.498180 0.031249
vt 0.498152 0.048648
vt 0.476425 0.031127
vt 0.491826 0.060997
vt 0.476398 0.048525
vt 0.482741 0.060997
vt 0.047881 0.005596
vt 0.042211 0.031995
vt 0.038248 0.024235
vt 0.051845 0.013355
vt 0.047876 0.031995
vt 0.042216 0.005596
vt 0.038255 0.013338
vt 0.051837 0.024253
vt 0.287643 0.084451
vt 0.278558 0.084451
vt 0.272215 0.071979
vt 0.272242 0.054581
vt 0.293969 0.072101
vt 0.278569 0.042232
vt 0.293997 0.054703
vt 0.287653 0.042232
vn 0.0000 1.0000 0.0000
vn 0.0000 0.0000 -1.0000
vn -1.0000 -0.0000 0.0000
vn 1.0000 0.0000 0.0000
vn 1.0000 -0.0001 0.0000
vn 0.0000 0.0000 1.0000
vn -1.0000 0.0001 0.0000
vn 0.0000 -1.0000 0.0000
vn 0.0000 -0.3864 0.9223
vn 0.0004 0.3835 0.9235
vn 0.0000 0.3864 0.9223
vn -0.0005 -0.9260 0.3774
vn -0.0004 -0.3835 0.9235
vn 0.0004 -0.9234 0.3838
vn -0.0004 -0.9234 -0.3838
vn 0.0005 -0.9260 -0.3774
vn 0.0004 -0.3835 -0.9235
vn 0.0000 0.3864 -0.9223
vn 0.0000 -0.3864 -0.9223
vn -0.0005 0.9260 -0.3774
vn -0.0004 0.3835 -0.9235
vn 0.0004 0.9234 -0.3838
vn -0.0004 0.9234 0.3838
vn 0.0005 0.9260 0.3774
vn 0.0000 -0.3854 0.9227
vn 0.0003 0.3825 0.9239
vn 0.0000 0.3854 0.9227
vn -0.0003 -0.9259 0.3778
vn -0.0003 -0.3825 0.9239
vn 0.0003 -0.9232 0.3844
vn -0.0003 -0.9232 -0.3844
vn 0.0003 -0.9259 -0.3778
vn 0.0003 -0.3825 -0.9239
vn 0.0000 0.3854 -0.9227
vn 0.0000 -0.3854 -0.9227
vn -0.0003 0.9259 -0.3778
vn -0.0003 0.3825 -0.9239
vn 0.0003 0.9232 -0.3844
vn -0.0003 0.9232 0.3844
vn 0.0003 0.9259 0.3778
vn 0.0006 0.3824 0.9240
vn 0.0000 0.3858 -0.9226
vn -0.0007 0.9262 -0.3771
vn -0.0003 0.3835 -0.9235
vn 0.0002 0.9234 -0.3838
vn -0.0005 0.9223 0.3865
vn 0.0007 0.9260 0.3774
vn -0.0003 -0.3835 0.9235
vn 0.0000 -0.3858 0.9226
vn 0.0007 -0.9260 -0.3774
vn 0.0006 -0.3824 -0.9240
vn -0.0005 -0.9223 -0.3865
vn 0.0002 -0.9234 0.3838
vn -0.0007 -0.9262 0.3771
vn -0.9224 -0.3862 0.0000
vn -0.9236 0.3835 0.0005
vn -0.9224 0.3862 0.0000
vn -0.3768 -0.9263 -0.0007
vn -0.9236 -0.3835 -0.0005
vn -0.3832 -0.9237 0.0005
vn 0.3832 -0.9237 -0.0005
vn 0.3767 -0.9263 0.0007
vn 0.9236 -0.3835 0.0005
vn 0.9224 0.3862 0.0000
vn 0.9224 -0.3862 0.0000
vn 0.3767 0.9263 -0.0007
vn 0.9236 0.3835 -0.0005
vn 0.3832 0.9237 0.0005
vn -0.3832 0.9237 -0.0005
vn -0.3768 0.9263 0.0007
vn 0.3768 0.9263 -0.0007
vn -0.3767 0.9263 0.0007
vn -0.3767 -0.9263 -0.0007
vn 0.3768 -0.9263 0.0007
usemtl Material.007
s off
f 1/1/1 2/2/1 3/3/1
f 4/4/2 3/5/2 2/6/2
f 5/7/1 1/1/1 3/3/1
f 6/8/3 5/9/3 3/10/3
f 7/11/3 3/10/3 4/12/3
f 6/8/3 3/10/3 7/11/3
f 8/13/4 2/14/4 1/15/4
f 9/16/2 4/4/2 2/6/2
f 10/17/4 9/18/4 2/14/4
f 11/19/4 12/20/4 2/14/4
f 13/21/4 2/14/4 12/20/4
f 14/22/4 11/19/4 2/14/4
f 8/13/5 14/22/5 2/14/5
f 15/23/4 2/14/4 13/21/4
f 16/24/4 17/25/4 2/14/4
f 18/26/4 2/14/4 17/25/4
f 15/23/4 16/24/4 2/14/4
f 19/27/4 10/17/4 2/14/4
f 18/26/4 19/27/4 2/14/4
f 20/28/6 1/29/6 5/30/6
f 21/31/4 1/15/4 22/32/4
f 20/28/6 22/33/6 1/29/6
f 21/31/4 8/13/4 1/15/4
f 23/34/3 24/35/3 5/9/3
f 25/36/6 5/30/6 24/37/6
f 26/38/3 27/39/3 5/9/3
f 28/40/3 5/9/3 27/39/3
f 29/41/3 26/38/3 5/9/3
f 30/42/3 29/41/3 5/9/3
f 6/8/7 30/42/7 5/9/7
f 31/43/3 32/44/3 5/9/3
f 33/45/3 5/9/3 32/44/3
f 28/40/3 31/43/3 5/9/3
f 34/46/3 23/34/3 5/9/3
f 33/45/3 34/46/3 5/9/3
f 35/47/6 20/28/6 5/30/6
f 36/48/6 35/47/6 5/30/6
f 37/49/6 36/48/6 5/30/6
f 25/36/6 38/50/6 5/30/6
f 39/51/6 5/30/6 38/50/6
f 40/52/6 37/49/6 5/30/6
f 39/51/6 40/52/6 5/30/6
f 24/53/8 4/54/8 9/55/8
f 41/56/3 4/12/3 24/35/3
f 42/57/3 7/11/3 4/12/3
f 43/58/3 42/57/3 4/12/3
f 44/59/3 43/58/3 4/12/3
f 45/60/3 44/59/3 4/12/3
f 46/61/3 45/60/3 4/12/3
f 47/62/3 46/61/3 4/12/3
f 48/63/3 49/64/3 4/12/3
f 47/62/3 4/12/3 49/64/3
f 50/65/3 48/63/3 4/12/3
f 41/56/7 50/65/7 4/12/7
f 51/66/4 22/32/4 9/18/4
f 24/53/8 9/55/8 22/67/8
f 51/66/4 9/18/4 10/17/4
f 52/68/4 21/31/4 22/32/4
f 53/69/4 52/68/4 22/32/4
f 54/70/4 53/69/4 22/32/4
f 55/71/4 54/70/4 22/32/4
f 56/72/4 55/71/4 22/32/4
f 57/73/4 56/72/4 22/32/4
f 58/74/4 57/73/4 22/32/4
f 59/75/4 58/74/4 22/32/4
f 60/76/4 59/75/4 22/32/4
f 51/66/5 60/76/5 22/32/5
f 61/77/6 24/37/6 22/33/6
f 62/78/6 63/79/6 22/33/6
f 64/80/6 22/33/6 63/79/6
f 20/28/6 62/78/6 22/33/6
f 64/80/6 65/81/6 22/33/6
f 66/82/6 22/33/6 65/81/6
f 67/83/6 61/77/6 22/33/6
f 66/82/6 67/83/6 22/33/6
f 68/84/9 12/85/9 11/86/9
f 69/87/10 13/88/10 12/85/10
f 68/84/11 69/87/11 12/85/11
f 70/89/12 11/90/12 14/91/12
f 71/92/13 68/84/13 11/86/13
f 71/93/14 11/90/14 70/89/14
f 72/94/15 14/91/15 8/95/15
f 70/89/16 14/91/16 72/94/16
f 72/96/17 8/97/17 21/98/17
f 73/99/18 21/98/18 52/100/18
f 72/96/19 21/98/19 73/99/19
f 74/101/20 52/102/20 53/103/20
f 75/104/21 73/99/21 52/100/21
f 74/101/22 75/105/22 52/102/22
f 15/23/4 13/21/4 53/69/4
f 69/106/23 53/103/23 13/107/23
f 76/108/4 15/23/4 53/69/4
f 54/70/4 76/108/4 53/69/4
f 69/106/24 74/101/24 53/103/24
f 77/109/25 17/110/25 16/111/25
f 18/26/4 17/25/4 78/112/4
f 79/113/26 78/114/26 17/110/26
f 77/109/27 79/113/27 17/110/27
f 80/115/28 16/116/28 15/117/28
f 81/118/29 77/109/29 16/111/29
f 81/119/30 16/116/30 80/115/30
f 82/120/31 15/117/31 76/121/31
f 80/115/32 15/117/32 82/120/32
f 82/122/33 76/123/33 54/124/33
f 83/125/34 54/124/34 55/126/34
f 82/122/35 54/124/35 83/125/35
f 84/127/36 55/126/36 56/128/36
f 85/129/37 83/125/37 55/126/37
f 84/127/38 85/130/38 55/126/38
f 18/26/4 78/112/4 56/72/4
f 79/131/39 56/128/39 78/132/39
f 57/73/4 18/26/4 56/72/4
f 79/131/40 84/127/40 56/128/40
f 86/133/9 10/134/9 19/135/9
f 87/136/41 51/137/41 10/134/41
f 86/133/11 87/136/11 10/134/11
f 88/138/12 19/139/12 18/140/12
f 89/141/13 86/133/13 19/135/13
f 89/142/14 19/139/14 88/138/14
f 90/143/15 18/140/15 57/144/15
f 88/138/16 18/140/16 90/143/16
f 90/145/17 57/146/17 58/147/17
f 91/148/42 58/147/42 59/149/42
f 90/145/19 58/147/19 91/148/19
f 92/150/43 59/151/43 60/152/43
f 93/153/44 91/148/44 59/149/44
f 92/150/45 93/154/45 59/151/45
f 87/155/46 60/152/46 51/156/46
f 87/155/47 92/150/47 60/152/47
f 23/34/3 41/56/3 24/35/3
f 61/77/6 25/36/6 24/37/6
f 94/157/11 7/158/11 42/159/11
f 95/160/48 6/161/48 7/158/48
f 94/157/49 95/160/49 7/158/49
f 96/162/24 42/163/24 43/164/24
f 97/165/10 94/157/10 42/159/10
f 96/162/23 97/166/23 42/163/23
f 28/40/3 27/39/3 43/58/3
f 98/167/22 43/164/22 27/168/22
f 99/169/3 43/58/3 44/59/3
f 99/169/3 28/40/3 43/58/3
f 98/167/20 96/162/20 43/164/20
f 98/170/21 27/171/21 26/172/21
f 100/173/19 26/172/19 29/174/19
f 98/170/18 26/172/18 100/173/18
f 101/175/50 29/176/50 30/177/50
f 102/178/51 100/173/51 29/174/51
f 101/175/52 102/179/52 29/176/52
f 95/180/53 30/177/53 6/181/53
f 95/180/54 101/175/54 30/177/54
f 103/182/27 44/183/27 45/184/27
f 104/185/29 99/186/29 44/183/29
f 103/182/25 104/185/25 44/183/25
f 105/187/40 45/188/40 46/189/40
f 106/190/26 103/182/26 45/184/26
f 105/187/39 106/191/39 45/188/39
f 33/45/3 107/192/3 46/61/3
f 108/193/38 46/189/38 107/194/38
f 47/62/3 33/45/3 46/61/3
f 108/193/36 105/187/36 46/189/36
f 33/45/3 32/44/3 107/192/3
f 108/195/37 107/196/37 32/197/37
f 109/198/35 32/197/35 31/199/35
f 108/195/34 32/197/34 109/198/34
f 110/200/32 31/201/32 28/202/32
f 111/203/33 109/198/33 31/199/33
f 110/200/31 111/204/31 31/201/31
f 104/205/30 28/202/30 99/206/30
f 104/205/28 110/200/28 28/202/28
f 112/207/11 49/208/11 48/209/11
f 113/210/13 47/211/13 49/208/13
f 112/207/9 113/210/9 49/208/9
f 114/212/47 48/213/47 50/214/47
f 115/215/41 112/207/41 48/209/41
f 114/212/46 115/216/46 48/213/46
f 116/217/45 50/214/45 41/218/45
f 116/217/43 114/212/43 50/214/43
f 116/219/44 41/220/44 23/221/44
f 117/222/19 23/221/19 34/223/19
f 116/219/42 23/221/42 117/222/42
f 118/224/16 34/225/16 33/226/16
f 119/227/17 117/222/17 34/223/17
f 118/224/15 119/228/15 34/225/15
f 113/229/14 33/226/14 47/230/14
f 113/229/12 118/224/12 33/226/12
f 120/231/55 63/232/55 62/233/55
f 121/234/56 64/235/56 63/232/56
f 120/231/57 121/234/57 63/232/57
f 122/236/58 62/237/58 20/238/58
f 123/239/59 120/231/59 62/233/59
f 123/240/60 62/237/60 122/236/60
f 124/241/61 20/238/61 35/242/61
f 122/236/62 20/238/62 124/241/62
f 124/243/63 35/244/63 36/245/63
f 66/82/6 125/246/6 36/48/6
f 126/247/64 36/245/64 125/248/64
f 37/49/6 66/82/6 36/48/6
f 124/243/65 36/245/65 126/247/65
f 66/82/6 65/81/6 125/246/6
f 127/249/66 125/250/66 65/251/66
f 128/252/67 126/247/67 125/248/67
f 127/249/68 128/253/68 125/250/68
f 121/254/69 65/251/69 64/255/69
f 121/254/70 127/249/70 65/251/70
f 129/256/64 38/257/64 25/258/64
f 130/259/63 39/260/63 38/257/63
f 129/256/65 130/259/65 38/257/65
f 131/261/71 25/262/71 61/263/71
f 132/264/67 129/256/67 25/258/67
f 131/261/68 132/265/68 25/262/68
f 133/266/69 61/263/69 67/267/69
f 133/266/72 131/261/72 61/263/72
f 133/268/56 67/269/56 66/270/56
f 134/271/55 66/270/55 37/272/55
f 133/268/57 66/270/57 134/271/57
f 135/273/73 37/274/73 40/275/73
f 136/276/59 134/271/59 37/272/59
f 135/273/60 136/277/60 37/274/60
f 130/278/61 40/275/61 39/279/61
f 130/278/74 135/273/74 40/275/74
f 120/280/6 126/281/6 128/282/6
f 123/283/6 126/281/6 120/280/6
f 123/283/6 124/284/6 126/281/6
f 121/285/6 128/282/6 127/286/6
f 120/280/6 128/282/6 121/285/6
f 123/283/6 122/287/6 124/284/6
f 129/288/6 134/289/6 136/290/6
f 132/291/6 134/289/6 129/288/6
f 133/292/6 134/289/6 132/291/6
f 130/293/6 136/290/6 135/294/6
f 129/288/6 136/290/6 130/293/6
f 133/292/6 132/291/6 131/295/6
f 98/296/3 100/297/3 102/298/3
f 98/296/3 102/298/3 101/299/3
f 96/300/3 101/299/3 95/301/3
f 98/296/3 101/299/3 96/300/3
f 97/302/3 95/301/3 94/303/3
f 96/300/3 95/301/3 97/302/3
f 103/304/3 109/305/3 111/306/3
f 106/307/3 109/305/3 103/304/3
f 108/308/3 109/305/3 106/307/3
f 104/309/3 111/306/3 110/310/3
f 103/304/3 111/306/3 104/309/3
f 108/308/3 106/307/3 105/311/3
f 116/312/3 117/313/3 119/314/3
f 116/312/3 119/314/3 118/315/3
f 114/316/3 118/315/3 113/317/3
f 116/312/3 118/315/3 114/316/3
f 115/318/3 113/317/3 112/319/3
f 114/316/3 113/317/3 115/318/3
f 72/320/4 73/321/4 75/322/4
f 72/320/4 75/322/4 74/323/4
f 70/324/4 74/323/4 69/325/4
f 70/324/4 72/320/4 74/323/4
f 71/326/4 69/325/4 68/327/4
f 71/326/4 70/324/4 69/325/4
f 77/328/4 83/329/4 85/330/4
f 81/331/4 83/329/4 77/328/4
f 81/331/4 82/332/4 83/329/4
f 79/333/4 85/330/4 84/334/4
f 77/328/4 85/330/4 79/333/4
f 81/331/4 80/335/4 82/332/4
f 90/336/4 91/337/4 93/338/4
f 90/336/4 93/338/4 92/339/4
f 88/340/4 92/339/4 87/341/4
f 88/340/4 90/336/4 92/339/4
f 89/342/4 87/341/4 86/343/4
f 89/342/4 88/340/4 87/341/4
