# Blender v2.82 (sub 7) OBJ File: 'untitled.blend'
# www.blender.org
mtllib Ikea_stefan_bottom.mtl
o Ikea_Stefan_Bottom_IkeaStefanBottom
v 0.399415 0.011500 0.836068
v 0.035476 0.011500 0.797248
v 0.399415 0.001500 0.836068
v 0.035476 0.001500 0.797248
v 0.410476 0.011500 0.826125
v 0.410476 0.001500 0.826125
v 0.410476 0.011500 0.428371
v 0.410476 0.001500 0.428371
v 0.399415 0.001500 0.418428
v 0.035476 0.001500 0.457248
v 0.399415 0.011500 0.418428
v 0.035476 0.011500 0.457248
v 0.035476 0.013000 0.458757
v 0.035476 0.000000 0.458757
v 0.035476 0.013000 0.494248
v 0.035476 0.000000 0.494248
v 0.000476 0.013000 0.494248
v 0.000476 0.000000 0.494248
v 0.000476 0.013000 0.760248
v 0.000476 0.000000 0.760248
v 0.000476 0.000000 0.494248
v 0.035476 0.013000 0.760248
v 0.035476 0.000000 0.760248
v 0.000476 0.000000 0.760248
v 0.035476 0.000000 0.760248
v 0.035476 0.013000 0.795740
v 0.035476 0.000000 0.795740
v 0.403093 0.013000 0.834212
v 0.399574 0.013000 0.834577
v 0.408240 0.013000 0.424911
v 0.406158 0.013000 0.422050
v 0.408976 0.013000 0.428371
v 0.403093 0.013000 0.420284
v 0.399574 0.013000 0.419919
v 0.408976 0.013000 0.826125
v 0.408240 0.013000 0.829585
v 0.406158 0.013000 0.832446
v 0.399574 0.000000 0.834577
v 0.035476 0.000000 0.494248
v 0.035476 0.000000 0.458757
v 0.399574 0.000000 0.419919
v 0.403093 0.000000 0.420284
v 0.406158 0.000000 0.422050
v 0.408976 0.000000 0.826125
v 0.408240 0.000000 0.829585
v 0.406158 0.000000 0.832446
v 0.408240 0.000000 0.424911
v 0.408976 0.000000 0.428371
v 0.403093 0.000000 0.834212
v 0.399574 -0.000000 0.419919
v 0.035476 0.000000 0.458757
v 0.399574 0.000000 0.834577
v 0.035476 0.000000 0.795740
v 0.403555 0.001500 0.835639
v 0.403555 0.011500 0.835639
v 0.407161 0.001500 0.833561
v 0.407161 0.011500 0.833561
v 0.409610 0.001500 0.830196
v 0.409610 0.011500 0.830196
v 0.409610 0.001500 0.424301
v 0.409610 0.011500 0.424301
v 0.407161 0.001500 0.420935
v 0.407161 0.011500 0.420935
v 0.403555 0.001500 0.418857
v 0.403555 0.011500 0.418857
v 0.399574 0.000000 0.419919
v 0.403093 0.000000 0.420284
v 0.406158 0.000000 0.422050
v 0.408240 0.000000 0.424911
v 0.408976 0.000000 0.428371
v 0.408976 -0.000000 0.826125
v 0.408976 -0.000000 0.428371
vt 0.532485 0.762493
vt 0.169705 0.762493
vt 0.532485 0.752525
vt 0.169705 0.752525
vt 0.235707 0.762493
vt 0.235707 0.752525
vt 0.632193 0.762493
vt 0.632193 0.752525
vt 0.532485 0.752525
vt 0.169705 0.752525
vt 0.532485 0.762493
vt 0.169705 0.762493
vt 0.603409 0.762493
vt 0.603409 0.752525
vt 0.601905 0.763989
vt 0.601905 0.751030
vt 0.566527 0.763989
vt 0.566527 0.751030
vt 0.134816 0.763989
vt 0.169705 0.763989
vt 0.134816 0.751030
vt 0.169705 0.751030
vt 0.301374 0.763989
vt 0.566527 0.763989
vt 0.301374 0.751030
vt 0.566527 0.751030
vt 0.169705 0.763989
vt 0.134816 0.763989
vt 0.169705 0.751030
vt 0.134816 0.751030
vt 0.301374 0.763989
vt 0.301374 0.751030
vt 0.265995 0.763989
vt 0.265995 0.751030
vt 0.264492 0.762493
vt 0.264492 0.752525
vt 0.777456 0.480160
vt 0.471489 0.480160
vt 0.777456 0.439901
vt 0.471489 0.439901
vt 0.386412 0.017049
vt 0.385992 0.021097
vt 0.430665 0.439901
vt 0.541281 0.958985
vt 0.539207 0.961837
vt 0.542015 0.955536
vt 0.536151 0.963597
vt 0.532644 0.963961
vt 0.169705 0.925248
vt 0.853230 0.010283
vt 0.818280 0.439901
vt 0.395714 0.010283
vt 0.391734 0.011129
vt 0.541281 0.555601
vt 0.536151 0.550989
vt 0.539207 0.552749
vt 0.277512 0.773610
vt 0.294592 0.933738
vt 0.310201 0.933738
vt 0.310201 0.949131
vt 0.427186 0.949131
vt 0.427186 0.933738
vt 0.202228 0.923312
vt 0.483233 0.923312
vt 0.123707 0.538675
vt 0.520727 0.923312
vt 0.561755 0.538675
vt 0.532644 0.963961
vt 0.536151 0.963597
vt 0.539207 0.961837
vt 0.542015 0.559050
vt 0.541281 0.555601
vt 0.539207 0.552749
vt 0.541281 0.958985
vt 0.542015 0.955536
vt 0.532644 0.550625
vt 0.536151 0.550989
vt 0.532485 0.965448
vt 0.169705 0.926752
vt 0.532644 0.963961
vt 0.169705 0.925248
vt 0.532485 0.965448
vt 0.169705 0.926752
vt 0.532485 0.549138
vt 0.169705 0.587835
vt 0.532644 0.550625
vt 0.169705 0.589338
vt 0.532644 0.550625
vt 0.169705 0.589338
vt 0.532485 0.549138
vt 0.169705 0.587835
vt 0.536612 0.752525
vt 0.536612 0.762493
vt 0.540207 0.752525
vt 0.540207 0.762493
vt 0.228294 0.762493
vt 0.228294 0.752525
vt 0.231649 0.752525
vt 0.231649 0.762493
vt 0.636251 0.752525
vt 0.636251 0.762493
vt 0.639606 0.752525
vt 0.639606 0.762493
vt 0.540207 0.762493
vt 0.540207 0.752525
vt 0.536612 0.752525
vt 0.536612 0.762493
vt 0.543510 0.955536
vt 0.542647 0.959594
vt 0.632193 0.763989
vt 0.635643 0.763989
vt 0.540207 0.962949
vt 0.536612 0.965020
vt 0.536151 0.763989
vt 0.532644 0.763989
vt 0.542015 0.559050
vt 0.543510 0.559050
vt 0.532644 0.763989
vt 0.536151 0.763989
vt 0.536612 0.549566
vt 0.540207 0.551637
vt 0.542647 0.554992
vt 0.232258 0.763989
vt 0.532644 0.751030
vt 0.536151 0.751030
vt 0.536151 0.963597
vt 0.536612 0.965020
vt 0.540207 0.962949
vt 0.539207 0.961837
vt 0.542647 0.959594
vt 0.541281 0.958985
vt 0.635643 0.751030
vt 0.543510 0.955536
vt 0.542015 0.955536
vt 0.543510 0.559050
vt 0.542015 0.559050
vt 0.542015 0.955536
vt 0.542647 0.554992
vt 0.235707 0.751030
vt 0.232258 0.751030
vt 0.540207 0.551637
vt 0.536612 0.549566
vt 0.536151 0.751030
vt 0.532644 0.751030
vn -0.1061 0.0000 0.9944
vn 1.0000 0.0000 0.0000
vn -0.1061 0.0000 -0.9944
vn -1.0000 0.0000 0.0000
vn 0.0000 0.0000 -1.0000
vn 0.0000 0.0000 1.0000
vn 0.0000 1.0000 0.0000
vn 0.0000 -1.0000 0.0000
vn -0.0750 0.7071 -0.7031
vn -0.0750 -0.7071 -0.7031
vn -0.0750 -0.7071 0.7031
vn -0.0750 0.7071 0.7031
vn 0.1032 0.0000 0.9947
vn 0.4991 0.0000 0.8665
vn 0.4992 0.0000 0.8665
vn 0.8087 0.0000 0.5882
vn 0.8087 0.0000 0.5883
vn 0.9781 0.0000 0.2081
vn 0.9781 0.0000 -0.2081
vn 0.8087 0.0000 -0.5883
vn 0.4992 0.0000 -0.8665
vn 0.1032 0.0000 -0.9947
vn 0.6992 0.6992 -0.1488
vn 0.5781 0.6992 -0.4205
vn 0.3569 0.6992 -0.6195
vn 0.3569 0.6992 -0.6194
vn 0.0738 0.6992 -0.7111
vn 0.7071 0.7071 0.0000
vn 0.0737 0.6992 0.7111
vn 0.0738 0.6992 0.7111
vn 0.3568 0.6992 0.6195
vn 0.3569 0.6992 0.6194
vn 0.5781 0.6992 0.4205
vn 0.6992 0.6992 0.1488
vn 0.0738 -0.6992 -0.7111
vn 0.3568 -0.6992 -0.6195
vn 0.3569 -0.6992 -0.6194
vn 0.5781 -0.6992 -0.4205
vn 0.6993 -0.6992 -0.1488
vn 0.6992 -0.6992 -0.1488
vn 0.7071 -0.7071 0.0000
vn 0.6993 -0.6992 0.1488
vn 0.6992 -0.6992 0.1488
vn 0.5781 -0.6992 0.4205
vn 0.3568 -0.6992 0.6195
vn 0.3569 -0.6992 0.6194
vn 0.0737 -0.6992 0.7111
vn 0.0738 -0.6992 0.7111
usemtl Material.004
s off
f 1/1/1 2/2/1 3/3/1
f 3/3/1 2/2/1 4/4/1
f 5/5/2 6/6/2 7/7/2
f 7/7/2 6/6/2 8/8/2
f 9/9/3 10/10/3 11/11/3
f 11/11/3 10/10/3 12/12/3
f 12/13/4 10/14/4 13/15/4
f 13/15/4 10/14/4 14/16/4
f 13/15/4 14/16/4 15/17/4
f 15/17/4 14/16/4 16/18/4
f 17/19/5 15/20/5 18/21/5
f 18/21/5 15/20/5 16/22/5
f 19/23/4 17/24/4 20/25/4
f 20/25/4 17/24/4 21/26/4
f 22/27/6 19/28/6 23/29/6
f 23/29/6 19/28/6 24/30/6
f 22/31/4 25/32/4 26/33/4
f 26/33/4 25/32/4 27/34/4
f 26/33/4 27/34/4 2/35/4
f 2/35/4 27/34/4 4/36/4
f 17/37/7 19/38/7 15/39/7
f 15/39/7 19/38/7 22/40/7
f 28/41/7 15/39/7 29/42/7
f 29/42/7 15/39/7 22/40/7
f 29/42/7 22/40/7 26/43/7
f 30/44/7 31/45/7 32/46/7
f 32/46/7 31/45/7 33/47/7
f 33/47/7 34/48/7 32/46/7
f 32/46/7 34/48/7 13/49/7
f 32/50/7 13/51/7 35/52/7
f 35/52/7 13/51/7 15/39/7
f 35/52/7 15/39/7 36/53/7
f 36/53/7 15/39/7 28/41/7
f 36/54/7 28/55/7 37/56/7
f 38/57/8 27/58/8 25/59/8
f 20/60/8 21/61/8 25/59/8
f 25/59/8 21/61/8 39/62/8
f 25/63/8 39/64/8 38/65/8
f 38/65/8 39/64/8 40/66/8
f 38/65/8 40/66/8 41/67/8
f 41/68/8 42/69/8 43/70/8
f 44/71/8 45/72/8 46/73/8
f 43/70/8 47/74/8 41/68/8
f 41/68/8 47/74/8 48/75/8
f 41/68/8 48/75/8 38/76/8
f 38/76/8 48/75/8 44/71/8
f 38/76/8 44/71/8 49/77/8
f 49/77/8 44/71/8 46/73/8
f 11/78/9 12/79/9 34/48/9
f 34/48/9 12/79/9 13/49/9
f 50/80/10 51/81/10 9/82/10
f 9/82/10 51/81/10 10/83/10
f 3/84/11 4/85/11 52/86/11
f 52/86/11 4/85/11 53/87/11
f 29/88/12 26/89/12 1/90/12
f 1/90/12 26/89/12 2/91/12
f 1/1/13 3/3/13 54/92/13
f 1/1/13 54/92/13 55/93/13
f 55/93/14 54/92/14 56/94/14
f 55/93/15 56/94/15 57/95/15
f 57/96/16 56/97/16 58/98/16
f 57/96/17 58/98/17 59/99/17
f 59/99/18 58/98/18 6/6/18
f 59/99/18 6/6/18 5/5/18
f 7/7/19 8/8/19 60/100/19
f 7/7/19 60/100/19 61/101/19
f 61/101/20 60/100/20 62/102/20
f 61/101/20 62/102/20 63/103/20
f 63/104/21 62/105/21 64/106/21
f 63/104/21 64/106/21 65/107/21
f 65/107/22 64/106/22 9/9/22
f 65/107/22 9/9/22 11/11/22
f 32/46/23 7/108/23 61/109/23
f 32/110/23 61/101/23 30/111/23
f 30/44/24 61/109/24 63/112/24
f 30/44/24 63/112/24 31/45/24
f 31/45/25 63/112/25 65/113/25
f 31/45/26 65/113/26 33/47/26
f 33/114/27 65/107/27 11/11/27
f 33/114/27 11/11/27 34/115/27
f 35/116/28 5/117/28 32/46/28
f 32/46/28 5/117/28 7/108/28
f 29/118/29 1/1/29 55/93/29
f 29/118/30 55/93/30 28/119/30
f 28/55/31 55/120/31 57/121/31
f 28/55/32 57/121/32 37/56/32
f 37/56/33 57/121/33 59/122/33
f 37/56/33 59/122/33 36/54/33
f 36/123/34 59/99/34 5/5/34
f 36/54/34 5/117/34 35/116/34
f 66/124/35 9/9/35 64/106/35
f 66/124/35 64/106/35 67/125/35
f 67/126/36 64/127/36 62/128/36
f 67/126/37 62/128/37 68/129/37
f 68/129/38 62/128/38 60/130/38
f 68/129/38 60/130/38 69/131/38
f 69/132/39 60/100/39 8/8/39
f 69/131/40 8/133/40 70/134/40
f 6/135/41 71/136/41 8/133/41
f 8/133/41 71/136/41 72/137/41
f 44/71/42 6/135/42 58/138/42
f 44/139/43 58/98/43 45/140/43
f 45/72/44 58/138/44 56/141/44
f 45/72/44 56/141/44 46/73/44
f 46/73/45 56/141/45 54/142/45
f 46/73/46 54/142/46 49/77/46
f 49/143/47 54/92/47 3/3/47
f 49/143/48 3/3/48 38/144/48
